<?xml version="1.0" standalone="no"?>
<!DOCTYPE svg PUBLIC "-//W3C//DTD SVG 20010904//EN"
 "http://www.w3.org/TR/2001/REC-SVG-20010904/DTD/svg10.dtd">
<svg version="1.0" xmlns="http://www.w3.org/2000/svg"
 width="838.000000pt" height="1200.000000pt" viewBox="0 0 838.000000 1200.000000"
 preserveAspectRatio="xMidYMid meet">

<g transform="translate(0.000000,1200.000000) scale(0.100000,-0.100000)"
fill="#000000" stroke="none">
<path d="M0 11374 c0 -555 2 -625 15 -614 12 10 20 9 40 -4 25 -17 30 -31 19
-60 -7 -19 -45 -21 -62 -4 -9 9 -12 6 -12 -14 0 -14 7 -28 15 -32 8 -3 79 -4
158 -2 190 6 1355 6 1897 2 406 -4 564 -13 728 -41 l32 -6 0 -66 0 -66 -307 7
c-170 3 -806 9 -1415 13 l-1108 6 1 -1734 c0 -954 3 -1728 6 -1721 9 22 23 13
23 -15 0 -38 -11 -74 -20 -68 -3 2 -8 -22 -9 -55 l-2 -59 48 -7 c142 -22 355
2 583 67 198 57 225 66 300 105 61 32 82 50 113 94 33 47 38 61 34 95 l-6 40
21 -25 c15 -19 18 -33 13 -60 -23 -134 -41 -699 -26 -860 6 -64 9 -10 11 215
1 165 2 308 1 318 -4 30 16 18 23 -14 8 -42 6 -60 -4 -29 l-8 25 -1 -28 c-1
-16 4 -37 9 -48 7 -13 7 -19 0 -19 -14 0 -12 -57 3 -63 9 -4 9 -6 0 -6 -14 -1
-19 -111 -5 -111 4 0 26 18 50 40 33 32 38 40 23 40 -11 0 -23 5 -26 11 -8 13
25 40 42 34 6 -2 14 4 16 13 3 10 5 5 6 -10 1 -34 9 -35 49 -5 17 12 57 41 89
63 32 23 68 50 79 60 12 11 43 34 68 52 26 18 44 37 41 42 -3 6 1 7 9 4 9 -3
16 -2 16 4 0 5 13 15 29 22 33 13 71 50 53 50 -7 0 -12 -4 -12 -10 0 -5 -4
-10 -10 -10 -18 0 -10 18 16 35 21 14 28 14 34 4 6 -9 20 -3 53 24 25 20 48
37 51 37 9 0 73 46 125 89 27 23 54 41 59 41 6 0 36 20 65 44 74 60 105 74
166 77 29 2 54 6 57 11 3 5 14 6 24 3 10 -3 24 0 32 8 7 7 18 12 24 10 6 -2
17 11 24 29 7 18 20 38 28 45 12 10 13 15 2 28 -14 16 5 38 99 117 24 21 31
33 26 48 -4 11 -11 18 -16 15 -5 -4 -9 10 -9 30 0 35 0 35 -24 20 -19 -13 -29
-14 -45 -5 -12 6 -21 14 -21 19 0 4 -36 6 -80 3 -55 -3 -80 -1 -80 7 0 6 8 11
17 11 9 0 14 3 10 6 -3 4 -56 8 -118 11 -86 3 -114 1 -120 -9 -7 -10 -9 -9 -9
5 0 16 19 17 260 17 l260 0 1 -40 c1 -22 2 -79 4 -127 1 -52 9 -106 18 -131
l17 -43 -41 -97 c-22 -53 -45 -101 -52 -107 -28 -22 -78 -103 -99 -160 -19
-50 -22 -81 -23 -190 0 -110 19 -274 31 -262 2 2 -3 55 -12 118 -25 184 -4
320 66 429 18 28 34 49 35 48 2 -2 -8 -50 -22 -108 -21 -87 -26 -131 -27 -255
0 -130 3 -158 21 -210 12 -33 27 -99 33 -146 5 -47 17 -109 26 -138 24 -81 97
-152 156 -151 19 1 16 4 -16 20 -55 28 -84 57 -106 107 -19 42 -40 137 -40
176 0 33 27 1 45 -53 32 -96 125 -200 180 -200 54 0 203 -49 253 -83 29 -20
72 -41 95 -47 65 -17 66 -17 72 -47 21 -98 41 -157 83 -247 3 -5 -2 -5 -9 -1
-20 11 -3 -4 56 -51 89 -71 91 -70 18 8 -63 68 -75 86 -96 155 -14 43 -28 101
-32 129 -6 51 -7 52 -45 58 -59 9 -125 41 -172 84 -24 21 -66 55 -94 75 -49
35 -142 142 -132 152 2 3 28 -24 57 -60 74 -91 81 -89 16 5 -40 57 -76 140
-110 254 l-27 88 18 70 18 70 13 -98 c14 -117 35 -204 62 -265 l21 -44 -6 38
c-4 21 -7 134 -8 250 -1 183 1 217 17 250 9 20 18 37 20 37 1 0 -6 -64 -16
-142 -19 -154 -17 -218 12 -319 17 -61 79 -195 86 -188 2 2 -7 36 -21 74 -13
39 -23 81 -23 95 1 17 3 19 6 8 12 -46 18 -6 21 125 2 98 0 137 -8 127 -5 -8
-10 -33 -11 -55 -2 -29 -4 -22 -8 25 -16 156 25 400 95 579 54 136 184 379
184 343 0 -7 -20 -56 -45 -109 -25 -53 -45 -104 -45 -113 0 -10 -16 -59 -35
-109 -44 -114 -72 -234 -79 -336 -5 -75 -5 -76 4 -19 15 105 85 338 159 533
27 69 51 133 54 141 3 8 4 -5 2 -30 -2 -25 -13 -72 -24 -104 -26 -72 -27 -92
-3 -49 9 18 42 69 73 115 30 46 86 151 124 235 38 84 72 150 76 148 3 -3 10
20 14 50 3 30 11 57 16 61 13 8 -7 -154 -37 -296 -3 -15 8 -3 27 30 31 53 32
57 32 175 0 66 -8 187 -17 269 -22 206 -24 197 31 224 25 12 47 21 48 20 1 -2
12 -29 24 -61 17 -47 21 -80 21 -181 0 -68 3 -152 7 -187 12 -112 19 -20 11
170 -5 137 -11 189 -27 236 -11 33 -18 61 -16 64 3 2 8 -5 12 -15 21 -59 62
-147 63 -136 0 14 7 10 128 -61 55 -33 35 -11 -30 32 -101 66 -115 81 -126
133 -5 26 -6 45 -1 42 13 -8 11 70 -6 171 -14 88 -29 204 -40 317 -4 34 -2 59
4 62 7 5 7 15 1 32 -13 33 -13 64 0 64 6 0 10 -13 10 -30 0 -30 24 -43 32 -18
3 7 7 5 11 -6 4 -10 3 -15 -3 -11 -6 3 -10 1 -10 -4 0 -6 6 -11 13 -11 8 0 19
-10 25 -22 11 -22 11 -22 9 7 -3 37 20 40 47 7 14 -18 21 -20 32 -11 8 6 14
18 14 26 0 8 4 12 9 8 6 -3 9 4 8 15 -1 12 -7 18 -14 16 -7 -3 -10 1 -6 10 5
13 8 13 24 -2 11 -9 19 -26 19 -36 0 -27 23 -17 31 13 l7 24 1 -25 c0 -14 -10
-44 -23 -67 -14 -25 -19 -40 -11 -37 17 7 55 95 55 128 0 18 5 26 18 26 31 0
112 -31 112 -43 0 -6 -12 -24 -27 -39 -30 -32 -16 -37 31 -13 16 9 31 13 34
10 3 -3 5 -24 3 -47 -2 -38 -1 -40 16 -27 10 7 28 25 41 39 l23 25 -5 -39 c-3
-21 -4 -37 -2 -35 42 45 157 244 192 331 l25 63 -5 -75 c-5 -74 -20 -130 -52
-198 -9 -19 -13 -36 -11 -39 3 -2 25 7 50 21 51 30 61 32 53 11 -5 -14 -3 -14
14 -2 31 22 62 66 54 78 -4 7 -3 9 3 6 11 -7 46 65 66 138 15 55 28 62 105 64
l42 1 0 -70 c0 -106 -15 -134 -88 -160 -53 -19 -155 -90 -109 -76 13 4 17 -1
17 -22 1 -23 2 -24 11 -9 5 9 17 17 26 17 9 0 13 6 9 15 -3 9 0 15 10 15 8 0
12 -4 9 -10 -3 -5 3 -10 14 -10 12 0 21 5 21 10 0 6 7 10 15 10 8 0 15 -5 15
-12 0 -6 3 -8 7 -4 5 4 -1 14 -11 22 -11 8 -16 14 -11 14 5 0 16 -7 26 -16 9
-8 30 -16 45 -17 27 -3 29 -5 26 -42 l-2 -40 15 34 c8 18 15 46 15 62 0 27 2
28 33 22 83 -16 82 -15 79 -68 -2 -27 -14 -69 -27 -95 -28 -55 -106 -149 -138
-167 -14 -8 -17 -12 -7 -13 20 0 89 37 118 63 33 30 27 13 -11 -29 -29 -34
-30 -36 -7 -24 14 7 33 20 44 29 18 16 18 15 3 -16 -9 -17 -33 -42 -54 -55
l-38 -23 38 -3 c22 -2 53 1 70 7 16 6 32 9 34 7 8 -7 -25 -61 -52 -86 l-27
-25 6 45 c5 39 3 36 -19 -28 -51 -149 -157 -270 -355 -402 -65 -44 -121 -84
-125 -90 -4 -6 31 14 77 44 l83 54 74 -25 c45 -15 120 -29 192 -36 136 -12
146 -8 173 67 19 52 29 159 14 150 -6 -4 -8 4 -4 22 3 16 10 60 16 99 6 38 13
71 14 73 2 1 8 -17 14 -40 11 -46 6 -92 -13 -121 -13 -18 -10 -45 17 -142 l11
-40 14 40 c22 63 43 181 43 248 0 33 3 57 7 54 4 -4 7 -29 7 -56 1 -61 12 -73
37 -41 34 44 89 163 84 180 -3 10 1 22 9 29 8 7 17 23 21 38 3 14 8 23 11 20
6 -6 -38 -180 -65 -261 -22 -63 -48 -110 -93 -167 -35 -46 -37 -75 -2 -34 29
34 75 121 105 197 24 62 69 235 67 263 0 11 7 40 16 64 9 24 14 46 12 48 -2 2
-9 -12 -16 -32 -7 -20 -14 -34 -17 -31 -3 2 2 26 10 53 9 26 21 104 26 172 6
68 12 125 13 127 2 1 3 -66 2 -149 -1 -115 -6 -161 -18 -191 -10 -24 -16 -68
-16 -120 -1 -106 -23 -227 -53 -287 -24 -49 -23 -67 1 -29 14 23 47 112 56
152 10 45 46 396 46 450 0 57 9 58 20 1 l8 -38 1 42 c1 40 -10 136 -29 258 -5
33 -12 115 -15 183 -5 106 -4 122 10 122 9 0 20 -10 25 -22 7 -17 8 -3 5 47
-4 48 -2 64 4 50 10 -19 10 -19 17 3 4 15 9 19 14 12 7 -12 81 20 108 47 8 8
28 21 45 30 18 9 35 21 39 27 4 6 8 55 8 109 l0 97 -164 0 c-155 0 -164 1
-169 20 -5 19 0 20 162 20 l168 0 7 662 c4 371 11 665 16 668 5 3 5 31 1 65
-9 61 -6 79 8 57 11 -18 21 -526 21 -1034 l0 -418 285 0 285 0 2 618 c1 339 4
572 8 517 3 -68 7 -89 11 -65 3 19 7 -41 7 -135 3 -242 14 -930 16 -932 4 -5
512 -10 524 -6 9 4 12 63 13 247 1 133 5 228 9 211 5 -19 8 10 7 80 0 79 -2
97 -7 65 -6 -39 -7 -33 -8 38 -1 49 2 82 8 82 6 0 11 -1 11 -2 1 -2 5 -165 8
-363 l6 -360 150 -6 c83 -3 189 -3 238 -1 l87 5 2 256 2 256 6 -215 6 -215 4
155 4 155 6 -200 5 -200 244 -2 c133 -1 246 -4 249 -8 3 -3 -109 -5 -249 -5
-139 0 -258 0 -264 0 -5 0 -3 -5 5 -10 12 -8 13 -13 3 -30 -7 -11 -12 -39 -11
-62 l1 -43 7 50 c4 28 8 -372 8 -887 l2 -938 -21 0 -21 0 4 958 3 957 -235 0
-235 0 3 -957 3 -958 -26 0 -25 0 0 958 c1 526 -1 956 -5 955 -3 -2 -122 -3
-265 -3 l-260 0 0 -951 c1 -707 -2 -955 -11 -965 -10 -12 154 -14 1130 -14
l1141 0 0 970 0 970 -41 0 -42 0 8 -960 7 -960 -27 0 -27 0 3 947 c3 740 7
949 17 959 15 15 16 34 2 34 -6 0 -9 58 -8 158 l2 157 6 -155 6 -155 4 165 4
165 6 -170 c4 -127 8 -170 18 -169 6 1 23 2 37 3 l25 1 0 1005 0 1005 -1754 0
c-1386 0 -1755 -3 -1759 -13 -4 -9 -6 -9 -6 1 -1 7 -14 12 -32 12 -27 0 -31
-3 -26 -22 10 -42 37 -272 52 -438 10 -114 14 -301 14 -605 l1 -440 -32 40
c-18 22 -59 67 -91 99 l-58 60 -5 330 c-3 182 -10 369 -15 416 -21 184 -49
409 -60 483 l-11 77 -1900 0 c-1767 0 -1899 -1 -1905 -17 -6 -15 -7 -14 -14 3
-6 18 -7 18 -14 1 -5 -12 -2 -22 10 -31 11 -8 16 -20 12 -29 -3 -9 -2 -19 3
-22 15 -9 12 -25 -5 -25 -9 0 -15 -9 -15 -21 0 -15 5 -19 15 -15 8 3 15 1 15
-5 0 -5 -8 -13 -17 -16 -22 -8 -34 -24 -26 -36 3 -4 13 -1 24 9 18 16 18 15
17 -20 -1 -20 -5 -39 -10 -42 -4 -3 -6 -10 -3 -15 4 -5 0 -11 -7 -14 -8 -3
-14 -14 -15 -24 -1 -14 3 -17 18 -14 16 4 19 0 19 -26 0 -18 -5 -31 -12 -31
-10 0 -9 -3 1 -9 11 -7 11 -9 0 -14 -10 -4 -10 -6 -1 -6 6 -1 12 -8 12 -16 0
-11 -11 -15 -42 -14 -24 1 -36 3 -26 6 25 6 31 33 8 33 -11 0 -20 4 -20 9 0 5
9 7 20 4 16 -4 19 -2 14 11 -3 9 -14 16 -23 16 -14 1 -14 2 2 14 17 13 17 15
1 24 -12 6 -13 11 -5 17 9 5 9 11 -1 23 -7 9 -8 13 -3 10 6 -4 17 -2 25 3 12
7 11 10 -7 15 -23 6 -30 19 -15 28 11 6 9 77 -3 95 -5 10 -4 16 3 19 7 2 12
12 12 23 0 10 5 19 10 19 6 0 10 5 10 10 0 6 -3 9 -7 9 -24 -4 -32 4 -30 29
l2 27 -362 3 -363 2 0 -626z m4919 569 c0 -25 -1 -25 -8 -8 -5 11 -7 23 -4 28
8 14 13 7 12 -20z m-52 -60 c-3 -10 -5 -4 -5 12 0 17 2 24 5 18 2 -7 2 -21 0
-30z m53 11 c0 -8 -5 -12 -10 -9 -6 4 -8 11 -5 16 9 14 15 11 15 -7z m-53 -76
c-3 -8 -6 -5 -6 6 -1 11 2 17 5 13 3 -3 4 -12 1 -19z m52 -40 c1 -10 -3 -18
-9 -18 -5 0 -10 19 -9 43 1 36 2 38 9 17 4 -14 8 -33 9 -42z m-2 -80 c-2 -13
-4 -5 -4 17 -1 22 1 32 4 23 2 -10 2 -28 0 -40z m-590 -10 c-3 -8 -6 -5 -6 6
-1 11 2 17 5 13 3 -3 4 -12 1 -19z m540 -40 c-2 -13 -4 -3 -4 22 0 25 2 35 4
23 2 -13 2 -33 0 -45z m-4067 42 c0 -5 -5 -10 -11 -10 -5 0 -7 5 -4 10 3 6 8
10 11 10 2 0 4 -4 4 -10z m3530 -55 c0 -14 -4 -25 -10 -25 -11 0 -14 33 -3 43
11 11 13 8 13 -18z m592 -253 c2 -100 0 -182 -4 -182 -4 0 -9 15 -11 33 -4 31
-4 31 -5 -5 -2 -28 2 -38 13 -38 18 0 20 -20 3 -21 -10 0 -10 -2 0 -6 9 -4 12
-71 11 -296 l-1 -292 -19 165 c-20 190 -26 555 -8 566 7 4 10 42 9 108 -3 120
2 266 7 196 1 -25 4 -127 5 -228z m-595 136 c-2 -13 -4 -5 -4 17 -1 22 1 32 4
23 2 -10 2 -28 0 -40z m-3574 5 c-7 -2 -19 -2 -25 0 -7 3 -2 5 12 5 14 0 19
-2 13 -5z m46 -100 c-1 -43 0 -91 1 -108 4 -49 1 -53 -35 -65 -34 -11 -60 -6
-50 9 2 5 5 61 6 125 l1 116 39 0 39 0 -1 -77z m-704 58 c3 -5 1 -12 -5 -16
-5 -3 -10 1 -10 9 0 18 6 21 15 7z m-4 -68 c-8 -15 -10 -15 -11 -2 0 17 10 32
18 25 2 -3 -1 -13 -7 -23z m4216 -160 c-2 -37 -3 -9 -3 62 0 72 1 102 3 68 2
-34 2 -93 0 -130z m1800 135 c-2 -13 -4 -5 -4 17 -1 22 1 32 4 23 2 -10 2 -28
0 -40z m-4760 -10 c-3 -8 -6 -5 -6 6 -1 11 2 17 5 13 3 -3 4 -12 1 -19z m3550
-10 c-3 -8 -6 -5 -6 6 -1 11 2 17 5 13 3 -3 4 -12 1 -19z m-570 -310 c-1 -57
-3 -11 -3 102 0 113 2 159 3 103 2 -57 2 -149 0 -205z m-3487 233 c0 -45 -6
-37 -13 18 -4 29 -2 40 4 30 5 -7 9 -29 9 -48z m-743 -3 c-3 -7 -5 -2 -5 12 0
14 2 19 5 13 2 -7 2 -19 0 -25z m1276 -10 c-8 -41 -20 -34 -15 8 2 20 8 32 12
27 5 -4 6 -20 3 -35z m-1243 -80 c0 -5 15 -6 35 -2 38 7 43 1 19 -23 -13 -14
-21 -14 -48 -5 -18 7 -42 12 -54 12 -24 0 -28 10 -11 27 12 12 59 5 59 -9z
m5977 -55 c-2 -16 -4 -3 -4 27 0 30 2 43 4 28 2 -16 2 -40 0 -55z m-6015 6
c-12 -5 -22 -15 -22 -23 0 -19 -31 -30 -41 -14 -5 8 -3 14 6 16 8 2 12 9 9 17
-6 14 29 25 55 16 10 -3 8 -7 -7 -12z m253 -15 c9 -15 12 -23 6 -20 -11 7 -35
46 -28 46 3 0 12 -12 22 -26z m-91 5 c-4 -8 1 -9 17 -4 13 4 21 4 17 0 -4 -4
-1 -17 7 -29 8 -11 15 -29 15 -39 0 -10 6 -28 14 -40 11 -17 12 -38 6 -87 -5
-45 -8 -53 -9 -27 0 20 -6 37 -12 37 -7 0 -8 -23 -3 -70 7 -76 -6 -96 -22 -32
-6 25 -15 37 -26 36 -29 -3 -28 23 2 58 28 31 33 60 15 88 -4 6 1 7 12 4 15
-4 14 -3 -2 7 -11 7 -33 26 -50 41 -20 19 -38 27 -52 25 -15 -3 -23 1 -23 9 0
7 6 11 13 8 7 -2 29 2 48 10 42 19 42 19 33 5z m856 -49 c16 -33 30 -72 29
-87 0 -21 -4 -14 -18 27 -10 30 -25 70 -35 88 -9 17 -14 32 -11 32 2 0 18 -27
35 -60z m938 14 c18 -19 35 -47 38 -64 4 -16 13 -31 20 -34 12 -4 10 -10 -7
-27 -12 -12 -18 -27 -14 -36 3 -9 0 -20 -7 -25 -10 -6 -10 -8 0 -8 18 0 15
-24 -6 -43 -15 -14 -18 -29 -14 -94 2 -54 -1 -84 -10 -96 -11 -15 -13 1 -10
98 3 80 1 115 -7 115 -6 0 -11 7 -11 15 0 8 5 15 11 15 6 0 3 7 -5 16 -19 19
-20 31 -3 37 7 3 5 6 -5 6 -22 1 -24 21 -3 21 20 0 19 3 -8 54 -23 43 -24 43
-37 23 l-13 -21 -8 22 c-5 12 -14 20 -21 18 -7 -1 -9 -1 -5 2 5 2 13 15 18 29
8 21 13 24 42 18 17 -4 47 -22 65 -41z m-1945 9 c17 -61 16 -68 -7 -79 -31
-15 -66 2 -66 33 0 20 4 22 25 17 24 -6 31 5 26 39 -2 15 18 6 22 -10z m4220
-165 c8 -5 6 -8 -5 -8 -16 0 -18 10 -16 98 l2 97 3 -90 c3 -55 8 -92 16 -97z
m-4131 51 c-3 -61 -8 -87 -19 -96 -18 -14 -37 -7 -30 11 3 7 2 40 -2 74 -6 54
-5 64 13 82 34 33 41 20 38 -71z m846 69 c7 -7 12 -21 12 -32 -1 -20 -1 -20
-20 3 -29 34 -22 59 8 29z m899 -10 c-3 -8 -6 -5 -6 6 -1 11 2 17 5 13 3 -3 4
-12 1 -19z m-467 -2 c0 -19 -14 -28 -34 -20 -13 5 -14 9 -5 20 15 18 39 18 39
0z m105 -65 c-1 -15 -4 -32 -8 -37 -3 -6 -2 -16 4 -24 5 -8 8 -28 8 -45 l-1
-30 -8 30 -8 30 -2 -35 c-1 -19 -6 -46 -11 -60 -6 -18 -8 -5 -6 45 1 39 -2 76
-7 84 -5 8 -4 16 5 22 11 6 10 11 -4 27 -9 10 -17 31 -17 47 l0 29 29 -28 c20
-19 28 -36 26 -55z m-793 36 c11 -9 16 -27 16 -60 -1 -50 -12 -62 -24 -24 -3
12 -14 30 -23 41 -15 18 -15 18 7 12 26 -9 28 1 5 26 -18 20 -6 24 19 5z
m-374 -38 c-3 -20 -5 -19 -9 9 -3 20 -2 29 4 23 5 -5 7 -19 5 -32z m1269 9
c-3 -8 -6 -5 -6 6 -1 11 2 17 5 13 3 -3 4 -12 1 -19z m-637 -118 c-6 -78 -7
-80 -9 -26 -1 49 -3 57 -15 47 -24 -20 -25 2 -3 52 28 64 37 40 27 -73z m2717
74 c-3 -3 -12 -4 -19 -1 -8 3 -5 6 6 6 11 1 17 -2 13 -5z m-3030 -41 c-3 -10
-5 -4 -5 12 0 17 2 24 5 18 2 -7 2 -21 0 -30z m-647 -6 c37 -13 45 -19 43 -39
-3 -41 17 -90 34 -83 27 10 11 -80 -18 -105 -47 -39 -52 -32 -49 73 1 55 1 57
-25 57 -28 0 -38 17 -50 90 -6 37 -5 43 6 33 8 -6 34 -18 59 -26z m4247 17
c-3 -3 -12 -4 -19 -1 -8 3 -5 6 6 6 11 1 17 -2 13 -5z m-3911 -84 c-3 -22 -8
-57 -11 -77 l-6 -38 96 0 c56 0 95 4 96 10 2 16 17 -38 17 -60 l1 -20 -9 20
c-6 14 -9 16 -9 4 -1 -13 -18 -16 -97 -18 -72 -2 -99 1 -105 11 -7 11 -11 10
-18 -2 -15 -23 -23 -6 -16 34 4 20 13 36 20 36 8 0 15 23 19 62 4 34 10 66 12
70 12 18 15 5 10 -32z m334 30 c0 -5 -4 -10 -10 -10 -5 0 -10 5 -10 10 0 6 5
10 10 10 6 0 10 -4 10 -10z m7 -107 c-3 -10 -5 -2 -5 17 0 19 2 27 5 18 2 -10
2 -26 0 -35z m-27 -18 c0 -17 -5 -25 -17 -24 -11 0 -13 3 -5 6 6 2 12 13 12
24 0 10 2 19 5 19 3 0 5 -11 5 -25z m-448 -42 l-6 -28 -6 25 c-7 27 -3 43 9
35 5 -2 6 -17 3 -32z m1875 5 c-3 -7 -5 -2 -5 12 0 14 2 19 5 13 2 -7 2 -19 0
-25z m-1450 -14 c-3 -3 -12 -4 -19 -1 -8 3 -5 6 6 6 11 1 17 -2 13 -5z m50 0
c-3 -3 -12 -4 -19 -1 -8 3 -5 6 6 6 11 1 17 -2 13 -5z m-34 -21 c-13 -2 -35
-2 -50 0 -16 2 -5 4 22 4 28 0 40 -2 28 -4z m6454 -95 c-2 -13 -4 -3 -4 22 0
25 2 35 4 23 2 -13 2 -33 0 -45z m560 -240 c-2 -13 -4 -3 -4 22 0 25 2 35 4
23 2 -13 2 -33 0 -45z m540 -5 c-3 -10 -5 -4 -5 12 0 17 2 24 5 18 2 -7 2 -21
0 -30z m-5954 -163 c4 -63 3 -82 -3 -55 -11 55 -16 165 -6 154 2 -2 6 -47 9
-99z m-143 70 c0 -5 -2 -10 -4 -10 -3 0 -8 5 -11 10 -3 6 -1 10 4 10 6 0 11
-4 11 -10z m12 -59 c2 -17 1 -28 -4 -25 -8 5 -12 54 -4 54 2 0 6 -13 8 -29z
m5565 -13 c-3 -8 -6 -5 -6 6 -1 11 2 17 5 13 3 -3 4 -12 1 -19z m0 -65 c-3
-10 -5 -2 -5 17 0 19 2 27 5 18 2 -10 2 -26 0 -35z m-5560 5 c-3 -7 -5 -2 -5
12 0 14 2 19 5 13 2 -7 2 -19 0 -25z m5540 0 c-3 -7 -5 -2 -5 12 0 14 2 19 5
13 2 -7 2 -19 0 -25z m-1 -55 c-11 -11 -19 6 -11 24 8 17 8 17 12 0 3 -10 2
-21 -1 -24z m-5517 -23 c1 -13 0 -13 -9 0 -5 8 -9 24 -9 35 l0 20 9 -20 c5
-11 9 -27 9 -35z m5538 -12 c-2 -13 -4 -3 -4 22 0 25 2 35 4 23 2 -13 2 -33 0
-45z m-5427 -5 c0 -28 -3 -34 -10 -23 -13 20 -13 60 0 60 6 0 10 -17 10 -37z
m5910 -33 c0 -6 -91 -10 -241 -10 -132 0 -238 3 -235 8 7 11 476 13 476 2z
m-500 -10 c0 -5 -7 -7 -15 -4 -8 4 -15 8 -15 10 0 2 7 4 15 4 8 0 15 -4 15
-10z m-5413 -42 c-3 -7 -5 -2 -5 12 0 14 2 19 5 13 2 -7 2 -19 0 -25z m5433
12 c0 -5 -7 -10 -16 -10 -8 0 -12 5 -9 10 3 6 10 10 16 10 5 0 9 -4 9 -10z
m-10 -370 c4 233 6 32 8 -582 2 -935 2 -938 -18 -938 -20 0 -20 3 -20 873 0
479 4 901 8 937 4 41 9 -67 12 -290 l5 -355 5 355z m-5480 286 c0 -26 -6 -18
-14 19 -5 22 -4 26 4 15 5 -8 10 -24 10 -34z m57 -68 c-2 -18 -4 -4 -4 32 0
36 2 50 4 33 2 -18 2 -48 0 -65z m1640 -345 c-3 -2 -50 -2 -105 -1 l-101 3 65
110 c35 61 77 142 92 182 l27 71 13 -180 c7 -99 11 -182 9 -185z m-1680 285
c-2 -13 -4 -5 -4 17 -1 22 1 32 4 23 2 -10 2 -28 0 -40z m2277 -123 c14 -66
26 -138 28 -160 l3 -40 -62 -3 -61 -3 14 58 c8 32 16 103 19 158 4 55 9 116
12 135 l6 35 8 -30 c5 -16 20 -84 33 -150z m643 123 c-3 -8 -6 -5 -6 6 -1 11
2 17 5 13 3 -3 4 -12 1 -19z m14 -51 c-10 -9 -11 -8 -5 6 3 10 9 15 12 12 3
-3 0 -11 -7 -18z m-2884 -64 c-3 -10 -5 -4 -5 12 0 17 2 24 5 18 2 -7 2 -21 0
-30z m0 -85 c-3 -8 -6 -5 -6 6 -1 11 2 17 5 13 3 -3 4 -12 1 -19z m2840 -130
c4 -101 1 -142 -17 -228 -13 -58 -24 -116 -26 -130 -4 -22 -3 -23 5 -5 8 18
10 16 10 -10 0 -16 -4 -39 -9 -50 -7 -17 -9 -16 -10 10 -1 17 -4 23 -6 15 -18
-55 -66 -129 -112 -171 -63 -57 -93 -67 -35 -11 28 27 51 67 81 141 24 56 42
107 40 112 -2 6 -27 -22 -57 -61 -29 -38 -55 -70 -56 -70 -2 0 3 26 11 58 16
67 18 130 3 72 -35 -128 -53 -173 -80 -205 -35 -39 -121 -101 -113 -81 3 7 16
18 30 24 13 7 24 20 24 31 0 11 5 23 11 27 28 17 49 93 50 180 1 49 7 120 15
157 8 38 14 85 14 105 1 30 3 34 11 20 5 -10 13 -64 16 -120 9 -146 25 -87 26
99 l1 142 46 26 c25 14 59 34 75 44 17 10 34 15 39 10 5 -4 11 -63 13 -131z
m-2970 54 c76 -26 106 -48 63 -46 -11 0 -55 1 -99 2 l-79 2 -11 44 c-19 75
-15 84 18 52 17 -16 63 -39 108 -54z m2440 -39 c-3 -10 -5 -2 -5 17 0 19 2 27
5 18 2 -10 2 -26 0 -35z m-666 -10 c25 -63 16 -230 -14 -259 -3 -3 -22 6 -44
19 -21 14 -53 28 -70 32 -18 4 -33 12 -33 20 0 9 -12 11 -44 8 -25 -3 -74 -2
-109 1 l-65 7 34 37 c19 20 51 63 72 94 42 64 42 64 175 67 87 1 88 1 98 -26z
m-320 -50 c-44 -88 -72 -119 -101 -116 -14 1 -19 0 -12 -3 19 -9 14 -24 -9
-24 -15 0 -19 4 -15 16 3 9 6 20 6 26 0 12 140 158 152 158 4 0 -5 -26 -21
-57z m999 -44 c0 -39 -5 -79 -11 -90 -18 -35 -4 -43 25 -13 35 37 54 73 64
121 7 35 9 30 25 -66 10 -57 16 -106 14 -108 -3 -2 -24 1 -48 6 -24 6 -63 11
-86 11 -49 0 -49 -1 -28 90 8 36 17 77 20 93 10 52 25 27 25 -44z m-2313 -91
c-2 -13 -4 -3 -4 22 0 25 2 35 4 23 2 -13 2 -33 0 -45z m2470 -15 c-2 -16 -4
-3 -4 27 0 30 2 43 4 28 2 -16 2 -40 0 -55z m74 31 c-5 -21 -9 -30 -10 -19 -1
24 10 67 15 62 3 -2 0 -22 -5 -43z m-14 -66 c-3 -8 -6 -5 -6 6 -1 11 2 17 5
13 3 -3 4 -12 1 -19z m-805 -50 c-11 -24 -27 -52 -36 -63 -17 -20 -17 -20 -10
4 4 17 3 22 -6 16 -9 -5 -11 -4 -6 4 4 6 11 9 15 6 5 -2 19 15 32 40 30 55 37
51 11 -7z m-362 28 c0 -11 -19 -15 -25 -6 -3 5 1 10 9 10 9 0 16 -2 16 -4z
m-1353 -63 c-3 -10 -5 -4 -5 12 0 17 2 24 5 18 2 -7 2 -21 0 -30z m13 -63 c0
-11 -4 -20 -10 -20 -5 0 -10 9 -10 20 0 11 5 20 10 20 6 0 10 -9 10 -20z m-3
-112 c-2 -13 -4 -3 -4 22 0 25 2 35 4 23 2 -13 2 -33 0 -45z m2748 -64 c-5
-42 -4 -54 5 -49 16 10 -15 -49 -58 -110 -31 -45 -32 -48 -7 -25 l28 25 -16
-30 c-8 -16 -29 -43 -45 -58 -26 -25 -30 -26 -36 -11 -4 10 -3 20 1 23 40 30
101 160 118 254 11 57 18 44 10 -19z m-2748 14 c-3 -8 -6 -5 -6 6 -1 11 2 17
5 13 3 -3 4 -12 1 -19z m1161 -188 c0 -32 -1 -31 -9 10 -4 25 -7 63 -7 85 1
39 1 39 8 -10 5 -27 8 -66 8 -85z m1503 26 c-12 -24 -30 -51 -41 -61 -35 -31
-25 9 15 61 19 25 35 51 36 57 0 8 2 8 6 -1 2 -6 -5 -32 -16 -56z m-100 -119
c-16 -16 -26 0 -10 19 9 11 15 12 17 4 2 -6 -1 -17 -7 -23z m-117 -84 c-7 -70
-31 -160 -44 -168 -5 -3 -3 16 5 42 8 26 19 78 25 116 7 37 14 67 16 67 2 0 1
-26 -2 -57z m-2654 -107 c0 -4 7 -3 15 4 12 10 15 10 15 -3 0 -9 10 -26 23
-37 12 -12 22 -27 22 -33 0 -7 6 -12 14 -12 8 0 18 -13 22 -29 4 -15 17 -35
28 -43 12 -8 21 -20 21 -26 0 -19 -39 -39 -62 -31 -15 4 -19 2 -16 -7 3 -8 22
-17 44 -20 31 -5 26 -6 -26 -6 -36 0 -55 2 -43 4 l21 4 -21 34 c-12 19 -30 34
-39 35 -10 0 -18 6 -18 14 0 8 -3 21 -6 30 -4 10 -1 16 9 16 8 0 17 -7 21 -15
3 -8 13 -15 21 -15 9 0 13 -4 10 -10 -3 -5 1 -10 9 -10 28 0 17 19 -24 45 -22
14 -40 32 -40 40 0 8 -4 15 -10 15 -5 0 -10 6 -10 13 0 8 -9 22 -19 31 -26 23
-7 50 21 32 10 -6 18 -15 18 -20z m2759 -13 c-5 -21 -9 -42 -10 -48 0 -5 -5 6
-10 25 -10 41 -5 60 15 60 11 0 12 -8 5 -37z m-2944 -33 c3 -5 1 -10 -4 -10
-6 0 -11 5 -11 10 0 6 2 10 4 10 3 0 8 -4 11 -10z m168 -37 c-7 -18 -33 -16
-33 2 0 8 -8 15 -17 15 -14 0 -15 2 -5 9 18 11 61 -10 55 -26z m-173 -15 c0
-36 -4 -35 -14 5 -4 16 -2 27 4 27 5 0 10 -14 10 -32z m2850 -22 c-6 -19 -18
-40 -26 -46 -15 -13 -20 0 -5 16 5 5 14 27 21 49 7 22 15 34 17 28 3 -7 0 -28
-7 -47z m-1453 22 c-3 -8 -6 -5 -6 6 -1 11 2 17 5 13 3 -3 4 -12 1 -19z
m-1327 -18 c0 -5 -2 -10 -4 -10 -3 0 -8 5 -11 10 -3 6 -1 10 4 10 6 0 11 -4
11 -10z m1294 -100 c3 0 3 15 1 33 -3 17 4 5 15 -28 11 -33 20 -73 19 -90 l0
-30 -17 24 c-22 31 -58 120 -67 163 -5 27 -2 23 19 -19 14 -29 27 -53 30 -53z
m-7 78 c-3 -8 -6 -5 -6 6 -1 11 2 17 5 13 3 -3 4 -12 1 -19z m-1007 -128 c0
-5 8 -10 18 -11 14 0 14 -2 -3 -9 -11 -5 -29 -9 -40 -9 -11 1 -15 3 -8 5 7 3
9 12 6 20 -3 8 1 14 11 14 9 0 16 -4 16 -10z m-177 -17 c-7 -2 -19 -2 -25 0
-7 3 -2 5 12 5 14 0 19 -2 13 -5z m264 1 c-3 -3 -12 -4 -19 -1 -8 3 -5 6 6 6
11 1 17 -2 13 -5z m654 -164 l-9 -45 -1 37 c-1 20 2 44 6 54 11 29 14 2 4 -46z
m216 -32 c-2 -18 -4 -4 -4 32 0 36 2 50 4 33 2 -18 2 -48 0 -65z m-2330 24 c7
-4 13 -32 14 -63 2 -42 -4 -66 -21 -97 -27 -49 -40 -46 -37 8 0 21 4 37 7 35
3 -2 4 14 2 36 -4 43 4 89 16 89 4 0 12 -4 19 -8z m1666 -27 c-3 -9 -8 -14
-10 -11 -3 3 -2 9 2 15 9 16 15 13 8 -4z m344 -92 c-2 -21 -4 -4 -4 37 0 41 2
58 4 38 2 -21 2 -55 0 -75z m-1252 87 c3 -5 -1 -10 -9 -10 -9 0 -16 5 -16 10
0 6 4 10 9 10 6 0 13 -4 16 -10z m175 6 c0 -3 -4 -8 -10 -11 -5 -3 -10 -1 -10
4 0 6 5 11 10 11 6 0 10 -2 10 -4z m146 -5 c-14 -5 -16 -10 -8 -15 7 -4 12
-12 12 -18 0 -7 -5 -6 -15 2 -8 7 -24 10 -35 7 -11 -3 -20 -1 -20 4 0 5 10 9
23 10 21 1 21 1 -3 9 -21 7 -17 8 20 8 31 0 39 -2 26 -7z m453 -7 c2 -2 -14
-4 -37 -4 -22 0 -44 -4 -47 -10 -4 -6 12 -10 39 -10 34 0 46 -4 46 -15 0 -8 9
-15 21 -15 11 0 18 4 14 9 -3 5 -1 12 4 15 5 3 11 -3 14 -14 5 -20 0 -20 -230
-20 -218 0 -234 1 -231 18 2 12 13 17 35 17 17 1 42 6 55 12 61 28 88 32 198
27 63 -3 117 -7 119 -10z m51 0 c0 -8 -5 -12 -10 -9 -6 4 -8 11 -5 16 9 14 15
11 15 -7z m-876 -9 c-4 -8 -10 -15 -14 -15 -4 0 -10 7 -14 15 -4 10 1 15 14
15 13 0 18 -5 14 -15z m111 5 c-3 -5 -12 -7 -20 -3 -21 7 -19 13 6 13 11 0 18
-4 14 -10z m368 3 c-7 -2 -19 -2 -25 0 -7 3 -2 5 12 5 14 0 19 -2 13 -5z m-73
-27 c0 -29 -17 -43 -33 -27 -8 8 -7 11 5 11 11 0 15 6 11 20 -3 11 0 20 6 20
6 0 11 -11 11 -24z m588 -1 c-3 -13 0 -26 6 -29 6 -2 3 -5 -6 -5 -20 -1 -21 3
-12 37 8 30 18 28 12 -3z m789 3 c-3 -8 -6 -5 -6 6 -1 11 2 17 5 13 3 -3 4
-12 1 -19z m-1537 -8 c0 -19 -6 -20 -192 -19 -128 1 -176 4 -143 9 28 4 112 5
188 2 123 -5 137 -3 137 11 0 10 2 17 5 17 3 0 5 -9 5 -20z m1301 -81 c-19
-85 -39 -145 -40 -121 -1 18 51 213 56 208 2 -2 -5 -41 -16 -87z m-190 14
c-11 -21 -20 -35 -21 -31 0 12 33 78 38 74 2 -2 -6 -21 -17 -43z m-1341 -125
c0 -28 -3 -38 -9 -29 -7 11 -10 11 -17 0 -6 -10 -10 -6 -14 15 -3 16 -12 30
-20 32 -8 1 -33 7 -55 12 -37 9 -35 10 38 11 l77 1 0 -42z m230 25 c0 -11 -3
-14 -8 -7 -4 6 -36 12 -71 13 -92 2 -90 11 2 11 67 0 77 -2 77 -17z m800 -3
c0 -20 -43 -165 -60 -202 -7 -16 -16 -28 -20 -28 -21 0 -43 224 -24 243 3 3
28 5 55 4 38 -1 49 -4 49 -17z m-572 -7 c-10 -2 -26 -2 -35 0 -10 3 -2 5 17 5
19 0 27 -2 18 -5z m-511 -25 c-3 -8 -6 -5 -6 6 -1 11 2 17 5 13 3 -3 4 -12 1
-19z m390 -10 c-3 -7 -5 -2 -5 12 0 14 2 19 5 13 2 -7 2 -19 0 -25z m-1428
-279 c17 -6 31 -15 31 -19 0 -5 9 -11 19 -15 23 -7 51 -62 51 -99 0 -20 -5
-26 -23 -26 -25 0 -67 26 -67 40 0 9 -19 34 -68 87 -36 40 -10 55 57 32z m174
-15 c-4 -12 -8 -13 -14 -3 -9 15 -2 32 11 24 5 -3 6 -13 3 -21z m105 -24 c-3
-38 -2 -40 24 -40 15 0 30 -5 33 -11 11 -17 -2 -22 -33 -11 l-30 10 -17 -116
c-10 -65 -20 -111 -23 -103 -5 14 39 311 46 311 2 0 2 -18 0 -40z m-52 -47 c4
-40 2 -53 -16 -76 -28 -36 -40 -34 -40 6 0 17 -5 50 -10 71 -7 34 -6 41 13 56
29 24 45 6 53 -57z m254 -62 c16 -30 12 -66 -10 -92 l-19 -24 -1 68 c0 67 10
84 30 48z m-914 -46 c-11 -8 -25 -15 -30 -15 -6 0 -2 7 8 15 11 8 25 15 30 15
6 0 2 -7 -8 -15z m2363 -175 c-20 -116 -29 -200 -30 -285 -1 -94 -3 -113 -11
-90 -14 43 -14 259 1 330 13 64 61 218 66 213 2 -2 -10 -77 -26 -168z m-1952
68 c-3 -8 -6 -5 -6 6 -1 11 2 17 5 13 3 -3 4 -12 1 -19z m-504 -205 c-9 -7
-22 -13 -27 -13 -6 0 -4 5 4 10 11 7 12 12 3 21 -6 6 -10 18 -7 25 15 48 16
49 30 9 13 -36 13 -41 -3 -52z m1557 57 c0 -5 -2 -10 -4 -10 -3 0 -8 5 -11 10
-3 6 -1 10 4 10 6 0 11 -4 11 -10z m-177 -17 c-7 -2 -19 -2 -25 0 -7 3 -2 5
12 5 14 0 19 -2 13 -5z m-1318 -23 c3 -5 -1 -10 -10 -10 -9 0 -13 5 -10 10 3
6 8 10 10 10 2 0 7 -4 10 -10z m172 -26 c-3 -3 -12 -4 -19 -1 -8 3 -5 6 6 6
11 1 17 -2 13 -5z m1033 -19 c0 -14 -4 -25 -10 -25 -11 0 -14 33 -3 43 11 11
13 8 13 -18z m-103 -27 c-3 -7 -5 -2 -5 12 0 14 2 19 5 13 2 -7 2 -19 0 -25z
m0 -95 c-2 -16 -4 -5 -4 22 0 28 2 40 4 28 2 -13 2 -35 0 -50z m20 20 c-3 -10
-5 -4 -5 12 0 17 2 24 5 18 2 -7 2 -21 0 -30z m1598 -172 c9 -41 13 -76 11
-79 -9 -8 -27 75 -31 143 -2 39 -2 57 1 40 3 -16 11 -63 19 -104z m-1585 112
c0 -5 -5 -15 -10 -23 -8 -12 -10 -11 -10 8 0 12 5 22 10 22 6 0 10 -3 10 -7z
m-100 -89 c0 -8 -4 -12 -10 -9 -5 3 -10 10 -10 16 0 5 5 9 10 9 6 0 10 -7 10
-16z m1367 -71 c-3 -10 -5 -4 -5 12 0 17 2 24 5 18 2 -7 2 -21 0 -30z m340 15
c-3 -8 -6 -5 -6 6 -1 11 2 17 5 13 3 -3 4 -12 1 -19z m-235 -205 c10 -15 25
-39 34 -53 9 -14 1 -8 -18 13 -19 21 -39 53 -46 70 -12 35 -4 26 30 -30z"/>
<path d="M738 11473 c6 -2 18 -2 25 0 6 3 1 5 -13 5 -14 0 -19 -2 -12 -5z"/>
<path d="M760 11429 c0 -5 5 -7 10 -4 6 3 10 8 10 11 0 2 -4 4 -10 4 -5 0 -10
-5 -10 -11z"/>
<path d="M748 11263 c7 -3 16 -2 19 1 4 3 -2 6 -13 5 -11 0 -14 -3 -6 -6z"/>
<path d="M7742 9175 c0 -16 2 -22 5 -12 2 9 2 23 0 30 -3 6 -5 -1 -5 -18z"/>
<path d="M7744 9010 c0 -63 1 -89 3 -57 2 31 2 83 0 115 -2 31 -3 5 -3 -58z"/>
<path d="M7743 8825 c0 -33 2 -45 4 -27 2 18 2 45 0 60 -2 15 -4 0 -4 -33z"/>
<path d="M3770 9250 c0 -6 20 -10 45 -10 25 0 61 -7 80 -14 42 -18 47 -12 8 7
-35 18 -133 30 -133 17z"/>
<path d="M2108 7843 c6 -2 18 -2 25 0 6 3 1 5 -13 5 -14 0 -19 -2 -12 -5z"/>
<path d="M4733 11273 c-7 -2 -13 -19 -13 -37 0 -42 29 -71 62 -61 29 10 38 23
38 58 0 25 -3 27 -22 21 -13 -3 -24 -11 -26 -15 -5 -12 -42 -11 -42 1 0 6 7
10 15 10 8 0 15 5 15 11 0 6 9 9 20 6 11 -3 20 -1 20 4 0 9 -46 11 -67 2z m61
-68 c-4 -8 -12 -15 -20 -15 -17 0 -18 17 -1 23 22 9 27 7 21 -8z"/>
<path d="M5482 11255 c0 -16 2 -22 5 -12 2 9 2 23 0 30 -3 6 -5 -1 -5 -18z"/>
<path d="M5483 11160 c0 -25 2 -35 4 -22 2 12 2 32 0 45 -2 12 -4 2 -4 -23z"/>
<path d="M2372 10545 c0 -16 2 -22 5 -12 2 9 2 23 0 30 -3 6 -5 -1 -5 -18z"/>
<path d="M6673 10320 c0 -47 2 -66 4 -42 2 23 2 61 0 85 -2 23 -4 4 -4 -43z"/>
<path d="M5510 9870 c0 -82 8 -107 25 -80 3 6 14 10 24 10 10 0 25 8 34 18 8
9 41 31 71 47 92 49 107 24 125 -210 10 -129 29 -713 32 -945 0 -55 3 -70 10
-55 7 15 8 10 4 -20 -3 -28 -2 -36 5 -25 9 13 13 11 30 -10 11 -14 17 -32 14
-41 -2 -9 2 -22 11 -29 8 -7 15 -22 16 -34 0 -11 3 -15 6 -8 6 14 33 16 33 2
0 -5 -4 -10 -10 -10 -5 0 -10 -18 -10 -40 0 -33 3 -40 20 -40 17 0 19 -4 14
-27 -4 -16 -10 -35 -14 -43 -4 -8 -5 -21 -3 -28 3 -7 0 -19 -6 -26 -9 -11 -5
-16 19 -26 28 -12 29 -14 15 -30 -23 -25 -20 -53 5 -45 16 5 20 2 19 -17 0
-13 -3 -17 -6 -10 -7 18 -23 15 -23 -6 0 -23 -22 -72 -33 -72 -5 0 -5 -5 -1
-11 3 -6 0 -15 -7 -20 -8 -5 -9 -9 -3 -9 7 0 12 -32 13 -90 1 -49 -2 -90 -6
-90 -13 0 -34 40 -28 51 4 5 3 8 -2 7 -4 -2 -26 15 -47 37 -37 38 -33 24 6
-21 10 -11 34 -50 53 -85 l35 -64 0 133 0 132 73 1 c39 0 67 3 61 5 -8 3 -9
275 -6 959 l5 955 -287 0 -286 0 0 -90z m412 -1312 c-6 -6 -7 0 -4 19 5 21 7
23 10 9 2 -10 0 -22 -6 -28z m28 -28 c0 -5 -7 -7 -15 -4 -8 4 -12 10 -9 15 6
11 24 2 24 -11z m33 -478 c-18 -5 -27 3 -18 17 4 7 10 7 20 -2 11 -10 11 -13
-2 -15z"/>
<path d="M8282 9900 c0 -14 2 -19 5 -12 2 6 2 18 0 25 -3 6 -5 1 -5 -13z"/>
<path d="M7182 9750 c0 -14 2 -19 5 -12 2 6 2 18 0 25 -3 6 -5 1 -5 -13z"/>
<path d="M8281 9744 c0 -11 3 -14 6 -6 3 7 2 16 -1 19 -3 4 -6 -2 -5 -13z"/>
<path d="M8281 9534 c0 -11 3 -14 6 -6 3 7 2 16 -1 19 -3 4 -6 -2 -5 -13z"/>
<path d="M5232 9480 c0 -14 2 -19 5 -12 2 6 2 18 0 25 -3 6 -5 1 -5 -13z"/>
<path d="M5242 9425 c0 -16 3 -50 7 -75 6 -33 9 -37 9 -15 0 17 -3 50 -7 75
-6 33 -9 37 -9 15z"/>
<path d="M5261 9274 c0 -11 3 -14 6 -6 3 7 2 16 -1 19 -3 4 -6 -2 -5 -13z"/>
<path d="M8275 9205 c-4 -42 -5 -79 -2 -81 2 -3 8 29 12 71 4 42 5 79 2 81 -2
3 -8 -29 -12 -71z"/>
<path d="M5273 9065 c0 -27 2 -38 4 -22 2 15 2 37 0 50 -2 12 -4 0 -4 -28z"/>
<path d="M3560 9072 c0 -16 32 -52 45 -52 11 0 12 6 6 23 -5 12 -14 21 -20 20
-6 -2 -11 2 -11 7 0 6 -4 10 -10 10 -5 0 -10 -3 -10 -8z"/>
<path d="M4516 9073 c-3 -4 -6 -19 -6 -35 0 -38 26 -37 32 2 4 27 -12 47 -26
33z"/>
<path d="M8271 9054 c0 -11 3 -14 6 -6 3 7 2 16 -1 19 -3 4 -6 -2 -5 -13z"/>
<path d="M3570 9001 c2 -24 30 -36 95 -38 48 -2 64 0 50 7 -11 5 -31 9 -45 10
-14 0 -42 7 -62 14 -21 8 -38 11 -38 7z"/>
<path d="M4490 8936 c0 -2 7 -7 16 -10 8 -3 12 -2 9 4 -6 10 -25 14 -25 6z"/>
<path d="M5239 8675 c-7 -235 -25 -302 -92 -360 -24 -21 -33 -33 -22 -30 l20
7 -20 -17 c-13 -11 -30 -14 -50 -10 -18 3 -26 2 -20 -4 9 -8 52 -15 81 -12 17
2 80 129 97 196 18 68 39 236 32 243 -3 3 -6 -3 -7 -14 -1 -10 -4 28 -7 86 -6
100 -6 96 -12 -85z"/>
<path d="M5841 8528 c0 -20 -4 -44 -7 -53 -7 -17 -2 -16 45 12 2 2 -3 11 -11
20 -9 10 -18 27 -21 38 -3 12 -5 5 -6 -17z"/>
<path d="M3493 8300 c0 -47 2 -66 4 -42 2 23 2 61 0 85 -2 23 -4 4 -4 -43z"/>
<path d="M5016 8305 c-26 -31 -64 -64 -84 -75 -25 -13 -31 -19 -17 -19 25 1
75 17 57 18 -7 1 14 28 47 60 34 33 57 62 52 65 -4 3 -29 -19 -55 -49z"/>
<path d="M5907 8323 c-9 -2 -15 -9 -12 -14 9 -14 22 -11 29 6 3 8 4 14 3 14
-1 -1 -10 -3 -20 -6z"/>
<path d="M3600 8230 c0 -47 -3 -103 -5 -125 -4 -30 -3 -35 4 -20 5 11 10 39
10 63 1 30 5 41 12 36 9 -5 10 7 5 46 -12 93 -25 93 -26 0z"/>
<path d="M3542 8280 c0 -14 2 -19 5 -12 2 6 2 18 0 25 -3 6 -5 1 -5 -13z"/>
<path d="M4853 8212 l-20 -27 23 -1 c12 -1 25 4 28 12 3 9 0 11 -12 7 -15 -6
-15 -5 -3 10 8 10 12 20 9 22 -2 3 -14 -8 -25 -23z"/>
<path d="M4995 8228 c-22 -72 -26 -90 -21 -95 3 -4 6 -2 6 3 0 5 7 30 15 57 8
26 12 47 9 47 -2 0 -6 -6 -9 -12z"/>
<path d="M3542 8210 c0 -14 2 -19 5 -12 2 6 2 18 0 25 -3 6 -5 1 -5 -13z"/>
<path d="M3940 8196 c0 -2 7 -7 16 -10 8 -3 12 -2 9 4 -6 10 -25 14 -25 6z"/>
<path d="M3631 8154 c0 -11 3 -14 6 -6 3 7 2 16 -1 19 -3 4 -6 -2 -5 -13z"/>
<path d="M3486 8100 c2 -25 11 -92 19 -150 8 -58 15 -139 15 -180 0 -52 3 -70
10 -60 5 8 8 60 5 115 -2 56 -1 85 3 65 l8 -35 7 38 c5 21 4 45 -2 54 -5 10
-8 49 -6 88 2 63 2 64 -4 15 -6 -56 -12 -52 -26 18 -4 17 -10 32 -15 32 -5 0
-11 10 -13 23 -3 12 -3 2 -1 -23z"/>
<path d="M4180 8119 c-22 -18 -22 -19 -3 -10 12 6 25 16 28 21 9 15 3 12 -25
-11z"/>
<path d="M4961 8104 c0 -11 3 -14 6 -6 3 7 2 16 -1 19 -3 4 -6 -2 -5 -13z"/>
<path d="M4945 8025 c-3 -26 -4 -49 -2 -51 3 -3 8 16 12 41 3 26 4 49 2 51 -3
3 -8 -16 -12 -41z"/>
<path d="M3703 7960 c0 -25 2 -35 4 -22 2 12 2 32 0 45 -2 12 -4 2 -4 -23z"/>
<path d="M6161 7896 c7 -6 175 -15 294 -17 71 -1 101 -4 85 -9 -21 -7 -22 -8
-5 -10 17 -2 16 -3 -5 -10 -14 -4 -19 -8 -12 -9 22 -2 13 -20 -13 -27 -14 -3
-25 -10 -25 -15 0 -5 -8 -13 -17 -16 -9 -4 -27 -18 -38 -31 -18 -21 -24 -23
-43 -13 -12 6 -22 16 -22 21 0 6 -10 10 -22 10 -19 0 -20 -2 -8 -10 12 -8 11
-10 -6 -10 -17 0 -21 5 -18 28 4 26 4 26 -6 -3 -10 -28 2 -333 16 -393 2 -12
5 -54 5 -93 1 -58 4 -72 20 -82 10 -6 19 -16 19 -21 0 -4 -7 -3 -15 4 -8 7
-15 10 -15 8 0 -3 7 -99 16 -214 9 -115 17 -240 19 -279 3 -68 27 -429 41
-608 5 -68 10 -87 21 -83 7 3 13 1 13 -3 0 -5 -5 -11 -12 -13 -8 -3 -9 -41 -1
-154 6 -82 14 -160 18 -174 7 -24 7 -24 -8 -5 -16 20 -16 20 -17 -2 0 -12 4
-23 10 -25 5 -1 11 -19 13 -39 2 -20 7 -41 11 -47 5 -8 1 -10 -11 -6 -13 5
-12 2 5 -10 14 -11 22 -28 23 -49 0 -25 2 -28 8 -13 7 19 8 18 14 -4 7 -27
-12 -47 -26 -27 -5 7 -6 3 -2 -10 3 -12 1 -24 -4 -27 -14 -9 20 -65 36 -59 7
3 13 0 13 -6 0 -6 -6 -11 -14 -11 -8 0 -25 -17 -37 -37 -29 -47 -37 -66 -14
-35 20 28 35 21 29 -14 -3 -14 1 -33 8 -42 11 -13 11 -14 -1 -8 -11 7 -12 0
-6 -35 4 -24 7 -56 7 -72 -1 -24 2 -26 23 -21 27 7 65 -3 65 -16 0 -5 -16 -8
-36 -7 -25 1 -38 -3 -42 -13 -5 -13 -3 -13 11 -1 15 12 17 11 17 -4 0 -15 3
-15 16 -5 13 11 16 10 21 -8 4 -16 13 -22 35 -22 23 0 29 -4 24 -15 -3 -9 3
-19 14 -25 14 -7 20 -7 20 0 0 5 9 10 21 10 14 0 19 -5 17 -17 -3 -15 -16 -19
-66 -21 -56 -3 -62 -5 -63 -25 0 -21 -1 -21 -9 -2 -4 12 -6 -6 -3 -42 4 -37 2
-63 -4 -63 -5 0 -7 17 -5 38 3 35 2 36 -12 18 -16 -19 -16 -19 -16 2 0 12 6
22 13 22 9 0 8 3 -1 9 -9 6 -14 29 -14 70 0 33 -4 59 -9 56 -4 -3 -7 -22 -5
-43 2 -20 4 -63 5 -95 1 -40 4 -56 12 -51 8 5 10 -10 5 -52 -3 -33 -2 -86 2
-119 l8 -60 8 51 c6 44 10 51 27 47 23 -6 25 9 4 27 -28 23 -15 31 15 8 30
-21 30 -22 10 -40 -11 -10 -22 -17 -26 -16 -3 2 -10 -5 -15 -14 -10 -18 17
-88 34 -88 5 0 3 -7 -4 -16 -12 -14 -14 -14 -21 3 -6 12 -7 5 -4 -19 3 -21 1
-38 -5 -38 -8 0 -13 23 -12 58 1 6 -4 12 -9 12 -7 0 -8 -14 -4 -37 4 -21 9
-81 12 -133 6 -141 23 -399 34 -530 20 -235 42 -592 36 -597 -3 -4 -18 -8 -33
-9 -58 -6 -93 -15 -93 -24 0 -13 -237 -13 -245 0 -3 5 -10 125 -16 267 -5 141
-11 258 -13 261 -2 2 -1 -137 2 -307 3 -171 2 -311 -1 -311 -5 0 -39 103 -53
163 -3 15 -8 26 -11 24 -8 -8 39 -172 82 -287 23 -63 68 -167 100 -230 69
-140 174 -379 214 -488 28 -74 28 -79 10 -75 -11 3 -22 9 -25 14 -3 5 -13 9
-22 9 -14 0 -14 -1 0 -12 14 -12 91 -273 162 -548 13 -52 25 -89 25 -81 1 8
-24 111 -55 229 -46 181 -54 221 -46 256 4 23 5 61 0 86 -13 77 -95 284 -212
533 -49 105 -51 112 -36 102 6 -3 10 2 10 11 0 17 1 16 13 -1 9 -12 16 -14 21
-7 4 6 13 9 20 6 7 -3 37 14 67 38 l54 43 120 -3 c381 -8 794 -56 834 -97 13
-13 16 -44 16 -168 0 -176 10 -217 67 -282 78 -88 145 -112 418 -150 102 -14
224 -32 271 -40 48 -8 96 -15 108 -15 l21 0 0 471 0 471 -1080 -4 -1081 -3 3
50 3 50 385 -4 c212 -2 697 0 1078 4 l693 8 -2 153 c-1 129 -4 153 -15 143 -8
-7 -24 -8 -41 -4 -27 8 -27 8 15 17 32 7 42 14 42 29 0 18 -9 19 -223 19
l-224 0 1 360 1 360 223 0 222 0 0 354 c0 274 -3 355 -12 359 -10 4 -10 6 0 6
7 1 12 16 12 44 l-1 42 -22 -55 c-12 -30 -27 -55 -32 -55 -15 0 -959 316 -967
324 -4 3 42 152 101 331 60 179 132 395 160 480 27 85 56 173 64 195 8 22 17
52 21 68 6 27 6 27 -46 27 -54 1 -90 18 -94 45 -1 8 2 13 7 9 5 -3 19 -2 32 2
21 8 20 8 -8 15 -29 6 -29 7 -4 8 14 0 37 11 51 24 14 13 31 21 38 19 7 -3 11
1 8 9 -3 8 -14 13 -24 12 -10 -1 -13 0 -6 3 6 3 12 10 12 15 0 6 -4 8 -8 5 -5
-3 -14 39 -22 92 -7 53 -16 102 -21 108 -5 5 -5 22 -1 37 7 26 8 26 20 7 7
-12 8 -20 2 -20 -5 0 -10 -7 -10 -15 0 -10 7 -15 17 -13 11 2 22 -6 27 -19 8
-16 20 -22 53 -25 24 -2 45 1 47 7 3 5 5 5 5 -2 1 -6 -3 -15 -9 -18 -5 -3 -10
-16 -10 -28 0 -18 2 -19 10 -7 7 12 11 10 19 -10 9 -24 10 -24 10 -3 1 12 5
24 9 27 5 3 17 33 28 67 10 34 25 63 31 66 13 5 37 -3 241 -76 63 -23 118 -41
124 -41 6 0 8 100 6 268 l-3 267 27 3 c22 3 29 11 37 38 5 20 7 41 5 49 -3 7
3 16 13 19 13 4 18 16 18 46 0 22 -5 40 -10 40 -29 0 5 159 36 167 10 3 19 12
19 20 0 10 -7 13 -22 8 l-23 -6 23 20 c25 22 29 33 7 25 -8 -4 -15 -1 -15 5 0
6 7 11 15 11 12 0 15 18 15 105 l0 105 -1112 0 c-611 0 -1109 -2 -1107 -4z
m594 -38 c6 -4 0 -8 -12 -8 -16 0 -21 4 -16 15 3 9 8 12 12 8 3 -4 11 -11 16
-15z m990 -119 c11 -34 -31 -53 -55 -24 -18 21 -5 45 24 45 16 0 27 -7 31 -21z
m153 -5 c4 -29 -23 -51 -43 -34 -16 13 -20 42 -8 54 14 14 48 1 51 -20z m106
-160 c24 -9 20 -51 -6 -60 -28 -9 -52 20 -37 47 10 20 18 23 43 13z m-986
-191 c-8 -216 8 -722 24 -741 7 -8 8 -13 2 -9 -16 9 -24 -85 -24 -294 l0 -179
-237 0 -238 0 -2 675 -3 675 241 0 241 0 -4 -127z m526 -80 c4 -38 21 -157 37
-265 25 -162 29 -207 21 -257 -7 -46 -6 -61 3 -61 13 0 31 -117 21 -128 -3 -3
-14 2 -24 11 -10 10 -25 17 -33 17 -12 0 -12 2 0 9 11 7 10 10 -5 13 -16 4
-14 6 8 12 27 8 43 30 32 47 -3 5 -10 6 -16 3 -6 -4 -5 -9 3 -15 10 -6 3 -13
-25 -24 -36 -15 -40 -15 -72 5 -20 11 -42 20 -50 20 -8 0 -12 4 -9 10 3 6 -1
7 -9 4 -21 -8 -20 5 1 28 16 18 16 18 0 12 -9 -3 -17 -11 -17 -16 0 -14 -48
-1 -81 23 -15 10 -31 19 -36 19 -5 0 -40 21 -78 46 l-70 45 -17 92 c-9 51 -19
126 -23 167 -3 41 -10 101 -16 134 -6 32 -9 59 -7 60 7 5 443 63 449 60 4 -2
10 -34 13 -71z m-1146 -15 c-3 -7 -13 -15 -24 -17 -16 -3 -17 -1 -5 13 16 19
34 21 29 4z m-18 -139 c0 -4 -7 -9 -15 -13 -9 -3 -15 0 -15 8 0 7 7 13 15 13
8 0 15 -4 15 -8z m48 -11 c14 -14 -2 -48 -23 -48 -10 0 -15 10 -15 30 0 31 17
39 38 18z m-57 -73 c10 7 12 -6 3 -29 -12 -32 -24 -15 -23 32 1 29 4 37 6 19
2 -15 9 -25 14 -22z m126 -32 c-3 -10 -5 -2 -5 17 0 19 2 27 5 18 2 -10 2 -26
0 -35z m-58 18 c26 -23 11 -38 -19 -19 -20 13 -28 38 -12 38 5 0 19 -9 31 -19z
m-39 -40 c0 -6 -4 -13 -10 -16 -5 -3 -10 1 -10 9 0 9 5 16 10 16 6 0 10 -4 10
-9z m65 -11 c8 -13 -20 -24 -41 -16 -20 8 -9 26 16 26 10 0 22 -5 25 -10z
m-76 -47 c0 -25 -1 -26 -9 -8 -12 27 -12 35 0 35 6 0 10 -12 9 -27z m138 -35
c-3 -7 -5 -2 -5 12 0 14 2 19 5 13 2 -7 2 -19 0 -25z m-149 -63 c0 -16 -2 -15
-8 5 -4 14 -8 36 -8 50 0 22 1 22 8 -5 4 -16 8 -39 8 -50z m1835 20 c3 17 4
-6 1 -49 -2 -44 -6 -81 -8 -83 -2 -2 -14 1 -27 7 -23 10 -23 10 -1 6 12 -2 22
0 22 5 0 5 -10 10 -22 10 -23 2 -22 2 1 6 21 4 23 8 17 46 -3 23 -8 53 -11 67
-3 14 1 10 9 -10 l14 -35 5 30z m-872 -152 c75 -45 164 -95 199 -113 39 -20
59 -35 51 -39 -6 -4 -62 2 -123 14 -107 21 -112 23 -127 53 -14 30 -18 32 -67
32 -59 0 -67 7 -84 70 -6 25 -16 53 -21 62 -14 28 -11 31 14 16 12 -8 83 -51
158 -95z m846 85 c-3 -8 -6 -5 -6 6 -1 11 2 17 5 13 3 -3 4 -12 1 -19z m-1047
-73 c7 -9 8 -15 2 -15 -5 0 -12 7 -16 15 -3 8 -4 15 -2 15 2 0 9 -7 16 -15z
m-763 -57 c-3 -7 -5 -2 -5 12 0 14 2 19 5 13 2 -7 2 -19 0 -25z m743 3 c0 -10
-9 -21 -20 -24 -25 -6 -26 11 -2 29 22 17 22 17 22 -5z m30 -11 c0 -11 -4 -20
-10 -20 -5 0 -10 9 -10 20 0 11 5 20 10 20 6 0 10 -9 10 -20z m4 -72 c-4 -25
-3 -39 2 -35 6 3 10 -11 11 -31 0 -23 -1 -28 -4 -13 -3 13 -11 31 -19 38 -9 9
-12 24 -8 41 14 57 27 57 18 0z m-767 10 c-3 -8 -6 -5 -6 6 -1 11 2 17 5 13 3
-3 4 -12 1 -19z m13 -58 c0 -11 -2 -20 -4 -20 -2 0 -6 9 -9 20 -3 11 -1 20 4
20 5 0 9 -9 9 -20z m877 -82 c-37 -11 -49 -9 -44 6 4 10 1 13 -7 10 -16 -6
-21 0 -30 39 l-7 29 55 -39 c50 -34 53 -39 33 -45z m-130 -25 c-3 -10 -5 -4
-5 12 0 17 2 24 5 18 2 -7 2 -21 0 -30z m261 0 c-10 -2 -26 -2 -35 0 -10 3 -2
5 17 5 19 0 27 -2 18 -5z m-80 -10 c-10 -2 -26 -2 -35 0 -10 3 -2 5 17 5 19 0
27 -2 18 -5z m50 -13 c-9 -6 -15 -18 -14 -27 2 -10 1 -12 -1 -5 -5 12 -14 15
-48 13 -12 0 -5 5 15 13 42 17 74 21 48 6z m50 -12 c7 -7 12 -8 12 -3 0 15 29
-29 30 -44 0 -11 -5 -10 -20 4 -18 16 -20 16 -26 1 -3 -9 -1 -23 6 -31 14 -17
50 -20 50 -5 0 6 7 10 15 10 8 0 15 -7 15 -15 0 -9 6 -12 15 -9 17 7 20 -7 5
-22 -6 -6 0 -20 18 -40 29 -32 37 -74 14 -74 -7 0 -10 5 -7 10 10 16 -15 40
-41 40 -18 0 -27 9 -38 35 -12 27 -21 35 -40 35 -18 0 -26 5 -26 18 0 10 -5
23 -11 29 -7 7 -8 17 -1 29 5 11 7 25 5 32 -6 15 9 16 25 0z m232 -24 c0 -8
-4 -12 -10 -9 -5 3 -10 10 -10 16 0 5 5 9 10 9 6 0 10 -7 10 -16z m27 -26 c-6
-24 -13 -36 -15 -27 -3 15 14 69 22 69 2 0 -1 -19 -7 -42z m-40 -75 c-3 -10
-5 -4 -5 12 0 17 2 24 5 18 2 -7 2 -21 0 -30z m-40 -55 c-3 -7 -5 -2 -5 12 0
14 2 19 5 13 2 -7 2 -19 0 -25z m27 -3 c-4 -8 -8 -15 -10 -15 -2 0 -4 7 -4 15
0 8 4 15 10 15 5 0 7 -7 4 -15z m-1177 -237 c-3 -8 -6 -5 -6 6 -1 11 2 17 5
13 3 -3 4 -12 1 -19z m-20 -75 c-3 -10 -5 -2 -5 17 0 19 2 27 5 18 2 -10 2
-26 0 -35z m83 -528 c0 -8 -4 -15 -9 -15 -5 0 -11 7 -15 15 -3 9 0 15 9 15 8
0 15 -7 15 -15z m-20 -84 c0 -5 -7 -11 -14 -14 -10 -4 -13 -1 -9 9 6 15 23 19
23 5z m220 -61 c0 -5 -4 -10 -10 -10 -5 0 -10 5 -10 10 0 6 5 10 10 10 6 0 10
-4 10 -10z m40 -25 c10 -12 10 -15 -3 -15 -8 0 -17 7 -21 15 -3 8 -2 15 3 15
5 0 14 -7 21 -15z m-220 -29 c0 -8 10 -16 22 -18 25 -4 37 -28 14 -28 -9 0
-16 -4 -16 -10 0 -5 7 -10 15 -10 8 0 15 5 15 10 0 6 11 10 25 10 14 0 25 -4
25 -9 0 -12 -57 -34 -69 -27 -5 3 -11 0 -14 -6 -2 -8 -8 -9 -13 -4 -5 5 -4 10
2 13 21 7 3 43 -21 43 -21 0 -22 2 -12 25 13 27 27 33 27 11z m650 -11 c91 -9
222 -22 292 -30 70 -8 132 -15 137 -15 6 0 8 -6 6 -12 -2 -7 -18 -168 -35
-358 -17 -190 -33 -354 -36 -365 -3 -18 -20 -179 -69 -660 -7 -71 -11 -133 -8
-137 2 -5 -4 -8 -14 -8 -30 0 -636 60 -661 65 -23 6 -23 9 -7 95 12 62 102
985 125 1275 6 83 13 156 16 164 3 10 16 12 47 8 23 -4 116 -13 207 -22z
m-490 -40 c10 -12 10 -15 -1 -15 -10 0 -10 -3 -1 -12 16 -16 15 -38 -2 -38 -7
0 -16 10 -19 22 -5 18 -8 19 -21 8 -23 -18 -22 7 1 32 20 22 27 22 43 3z m35
5 c3 -5 1 -10 -4 -10 -6 0 -11 5 -11 10 0 6 2 10 4 10 3 0 8 -4 11 -10z m-215
-20 c8 -5 11 -10 5 -10 -5 0 -17 5 -25 10 -8 5 -10 10 -5 10 6 0 17 -5 25 -10z
m160 -70 c0 -5 -4 -10 -10 -10 -5 0 -10 5 -10 10 0 6 5 10 10 10 6 0 10 -4 10
-10z m40 -26 c0 -8 -4 -12 -10 -9 -5 3 -10 10 -10 16 0 5 5 9 10 9 6 0 10 -7
10 -16z m2 -106 c0 -13 1 -28 1 -35 0 -6 6 -9 14 -6 8 3 12 12 9 19 -3 7 -1
16 5 20 6 3 13 -4 16 -16 4 -14 11 -19 22 -15 24 8 -30 -34 -59 -46 -14 -6
-39 -8 -57 -4 -42 8 -45 35 -4 35 31 0 43 16 34 49 -3 12 -1 21 6 21 6 0 12
-10 13 -22z m175 -30 c-3 -8 -6 -5 -6 6 -1 11 2 17 5 13 3 -3 4 -12 1 -19z
m-212 2 c4 -6 -5 -10 -20 -10 -15 0 -24 4 -20 10 3 6 12 10 20 10 8 0 17 -4
20 -10z m-85 -18 c0 -5 -9 -17 -20 -27 -20 -18 -20 -17 -20 8 0 20 5 27 20 27
11 0 20 -4 20 -8z m287 -52 c1 -23 -1 -27 -4 -10 -3 13 -12 30 -21 38 -15 12
-15 13 3 10 15 -2 20 -11 22 -38z m-23 -25 c-4 -8 -11 -12 -16 -9 -6 4 -5 10
3 15 19 12 19 11 13 -6z m-202 -30 c0 -5 -5 -11 -11 -13 -6 -2 -11 4 -11 13 0
9 5 15 11 13 6 -2 11 -8 11 -13z m-129 -46 c-6 -6 -7 3 -4 23 4 28 6 29 9 9 2
-13 0 -27 -5 -32z m308 -111 c-6 -18 -8 -13 -8 22 0 35 2 40 8 22 5 -12 5 -32
0 -44z m26 25 c-3 -10 -5 -4 -5 12 0 17 2 24 5 18 2 -7 2 -21 0 -30z m-204
-138 c1 -5 -11 -12 -27 -13 -27 -3 -28 -2 -16 13 14 17 40 17 43 0z m-93 -19
c0 -3 -4 -8 -10 -11 -5 -3 -10 -1 -10 4 0 6 5 11 10 11 6 0 10 -2 10 -4z m150
-11 c0 -9 6 -12 16 -8 14 5 16 2 10 -23 -9 -36 -31 -61 -40 -45 -4 6 -2 11 3
11 6 0 11 9 11 21 0 15 -5 19 -15 15 -15 -5 -45 18 -45 35 0 5 14 9 30 9 20 0
30 -5 30 -15z m-80 -15 c0 -5 -2 -10 -4 -10 -3 0 -8 5 -11 10 -3 6 -1 10 4 10
6 0 11 -4 11 -10z m197 -62 c-2 -13 -4 -5 -4 17 -1 22 1 32 4 23 2 -10 2 -28
0 -40z m-17 -3 c0 -8 -4 -16 -9 -19 -5 -3 -8 5 -7 18 1 25 16 26 16 1z m-263
-77 c-3 -7 -5 -2 -5 12 0 14 2 19 5 13 2 -7 2 -19 0 -25z m1363 -375 c0 -36
-4 -52 -9 -43 -8 14 -3 100 5 100 2 0 4 -26 4 -57z m-42 -80 c10 -18 9 -20 -7
-16 -13 3 -17 11 -14 24 6 22 6 22 21 -8z m41 -40 l-1 -48 -8 40 c-7 37 -5 55
6 55 2 0 3 -21 3 -47z m-762 -219 c-3 -3 -12 -4 -19 -1 -8 3 -5 6 6 6 11 1 17
-2 13 -5z m1196 -51 c-7 -2 -19 -2 -25 0 -7 3 -2 5 12 5 14 0 19 -2 13 -5z
m-1106 -29 c-3 -3 -12 -4 -19 -1 -8 3 -5 6 6 6 11 1 17 -2 13 -5z m-252 -64
c12 -5 14 -9 6 -9 -8 -1 -23 -8 -33 -18 -17 -15 -18 -15 -18 0 0 10 8 17 18
17 14 0 15 2 2 10 -18 12 -2 12 25 0z m109 -47 c7 -13 10 -13 17 -2 6 9 8 3 6
-17 -2 -27 -5 -30 -19 -23 -21 11 -31 11 -24 0 3 -5 -8 -11 -25 -13 -16 -3
-32 -1 -35 4 -3 4 1 8 8 8 7 1 1 8 -14 16 -16 8 -28 19 -28 24 0 31 96 34 114
3z m-129 -33 c3 -5 1 -10 -4 -10 -6 0 -11 5 -11 10 0 6 2 10 4 10 3 0 8 -4 11
-10z m-535 -494 c0 -2 -7 -7 -16 -10 -8 -3 -12 -2 -9 4 6 10 25 14 25 6z
m1183 -313 c-21 -8 -15 -23 8 -23 14 0 19 -5 16 -15 -4 -8 -2 -17 3 -20 20
-12 10 -27 -14 -21 -15 4 -26 1 -29 -7 -3 -8 -16 -1 -38 21 -30 28 -31 32 -13
32 12 0 29 9 39 20 10 11 23 20 29 19 6 0 6 -3 -1 -6z m86 -39 c2 -2 2 -6 0
-9 -8 -7 -49 7 -49 17 0 8 38 2 49 -8z m-1137 -308 c10 -14 10 -90 1 -100 -4
-3 -12 13 -18 36 -6 24 -15 53 -19 65 -6 19 -4 22 11 16 10 -4 21 -11 25 -17z
m1716 -13 c-10 -2 -26 -2 -35 0 -10 3 -2 5 17 5 19 0 27 -2 18 -5z"/>
<path d="M6580 6835 l0 -635 205 0 205 0 0 635 0 635 -205 0 -205 0 0 -635z
m269 598 l121 -6 -2 -391 -3 -391 -22 -3 c-23 -3 -23 -4 -23 -198 0 -187 1
-194 20 -194 12 0 20 -7 20 -16 0 -14 -7 -15 -37 -10 -21 3 -98 6 -170 6
l-133 0 0 27 c0 14 7 34 16 44 9 10 21 52 27 94 13 82 23 95 74 95 34 0 53 21
53 59 0 23 -15 28 -23 8 -3 -7 -24 -21 -47 -30 l-42 -16 6 42 c11 65 36 101
75 107 19 3 38 12 44 21 12 19 3 49 -14 49 -6 0 -9 -7 -5 -15 9 -24 -4 -45
-29 -45 -15 0 -33 -13 -49 -32 -29 -38 -32 -29 -11 32 15 43 20 112 9 123 -4
3 -18 -16 -32 -44 -25 -47 -25 -52 -14 -109 7 -33 10 -83 7 -112 -10 -88 -27
-178 -35 -183 -8 -5 -20 469 -20 832 l0 263 58 0 c33 0 114 -3 181 -7z"/>
<path d="M6868 7393 l63 -4 -3 -180 c-2 -98 0 -179 5 -179 4 0 7 83 7 185 l0
185 -67 -2 -68 -2 63 -3z"/>
<path d="M6774 7150 c0 -74 1 -105 3 -67 2 37 2 97 0 135 -2 37 -3 6 -3 -68z"/>
<path d="M6920 6990 c0 -16 4 -30 8 -30 4 0 9 14 10 30 1 17 -2 30 -8 30 -5 0
-10 -13 -10 -30z"/>
<path d="M6788 6963 c12 -2 30 -2 40 0 9 3 -1 5 -23 4 -22 0 -30 -2 -17 -4z"/>
<path d="M7406 7085 c4 -27 8 -52 10 -54 8 -9 2 65 -7 84 -6 13 -7 4 -3 -30z"/>
<path d="M7242 7080 c0 -25 3 -54 8 -65 11 -27 11 49 0 85 -7 21 -8 17 -8 -20z"/>
<path d="M7463 6935 c-13 -22 -118 -48 -172 -42 -27 3 -38 2 -30 -4 21 -13 90
-11 146 6 48 14 82 39 70 51 -3 3 -9 -2 -14 -11z"/>
<path d="M7560 6810 c-9 -6 -10 -10 -3 -10 6 0 15 5 18 10 8 12 4 12 -15 0z"/>
<path d="M7194 6774 c18 -70 27 -79 91 -84 57 -5 60 -6 70 -37 7 -26 15 -33
35 -33 14 0 50 -7 80 -15 30 -8 56 -12 59 -10 2 3 0 5 -5 5 -13 0 -260 145
-303 178 l-34 25 7 -29z"/>
<path d="M7268 5093 c6 -2 18 -2 25 0 6 3 1 5 -13 5 -14 0 -19 -2 -12 -5z"/>
<path d="M7016 5013 c7 -28 24 -46 33 -37 3 3 -1 9 -8 14 -8 4 -12 17 -8 29 3
14 0 21 -9 21 -11 0 -13 -7 -8 -27z"/>
<path d="M7418 4998 c-16 -5 -28 -13 -28 -16 1 -16 20 -36 27 -28 4 5 2 11 -5
13 -19 7 -3 23 24 23 13 0 24 5 24 10 0 12 -6 12 -42 -2z"/>
<path d="M7070 4991 c0 -5 9 -7 20 -4 11 3 20 0 20 -6 0 -6 5 -11 11 -11 5 0
7 5 4 10 -3 6 -2 10 3 10 6 0 13 -7 16 -16 5 -13 9 -14 21 -4 19 16 33 4 17
-12 -7 -7 -12 -17 -12 -22 1 -13 40 32 40 46 0 5 -4 6 -10 3 -5 -3 -10 -1 -10
4 0 13 -22 10 -32 -4 -5 -6 -8 -5 -8 3 0 7 -15 12 -40 12 -22 0 -40 -4 -40 -9z"/>
<path d="M7311 4978 c-1 -21 4 -28 17 -28 11 0 13 3 6 8 -7 4 -14 16 -17 27
-4 15 -5 14 -6 -7z"/>
<path d="M7362 4960 c0 -14 2 -19 5 -12 2 6 2 18 0 25 -3 6 -5 1 -5 -13z"/>
<path d="M7431 4963 c-1 -16 5 -23 17 -23 10 0 13 3 6 8 -6 4 -14 14 -17 22
-4 10 -6 8 -6 -7z"/>
<path d="M7052 4820 c0 -19 2 -27 5 -17 2 9 2 25 0 35 -3 9 -5 1 -5 -18z"/>
<path d="M7222 4798 c-16 -16 -15 -28 3 -28 8 0 15 9 15 20 0 23 -2 24 -18 8z"/>
<path d="M7090 4789 c0 -5 5 -7 10 -4 6 3 10 8 10 11 0 2 -4 4 -10 4 -5 0 -10
-5 -10 -11z"/>
<path d="M7135 4790 c-3 -5 -1 -10 4 -10 6 0 11 5 11 10 0 6 -2 10 -4 10 -3 0
-8 -4 -11 -10z"/>
<path d="M7160 4792 c0 -5 7 -9 15 -9 8 0 12 4 9 9 -3 4 -9 8 -15 8 -5 0 -9
-4 -9 -8z"/>
<path d="M7256 4785 c-3 -8 -1 -15 4 -15 6 0 10 7 10 15 0 8 -2 15 -4 15 -2 0
-6 -7 -10 -15z"/>
<path d="M7294 4782 c-1 -9 -4 -26 -8 -37 -4 -11 0 -7 9 9 10 16 13 32 8 37
-5 5 -9 1 -9 -9z"/>
<path d="M7031 4633 c-1 -24 13 -31 25 -11 4 6 3 8 -4 4 -6 -3 -13 2 -15 11
-4 14 -5 13 -6 -4z"/>
<path d="M7088 4633 c7 -3 16 -2 19 1 4 3 -2 6 -13 5 -11 0 -14 -3 -6 -6z"/>
<path d="M7172 4620 c0 -14 2 -19 5 -12 2 6 2 18 0 25 -3 6 -5 1 -5 -13z"/>
<path d="M7265 4630 c-3 -5 -1 -10 4 -10 6 0 11 5 11 10 0 6 -2 10 -4 10 -3 0
-8 -4 -11 -10z"/>
<path d="M7145 4620 c-3 -5 -1 -10 4 -10 6 0 11 5 11 10 0 6 -2 10 -4 10 -3 0
-8 -4 -11 -10z"/>
<path d="M7346 4594 c-11 -8 -16 -14 -10 -14 13 0 39 18 34 24 -3 2 -14 -2
-24 -10z"/>
<path d="M7024 4426 c-9 -9 -8 -17 2 -31 13 -17 14 -16 14 13 0 36 -1 36 -16
18z"/>
<path d="M7110 4400 c6 -11 13 -20 16 -20 2 0 0 9 -6 20 -6 11 -13 20 -16 20
-2 0 0 -9 6 -20z"/>
<path d="M7175 4390 c-3 -5 -2 -10 4 -10 5 0 13 5 16 10 3 6 2 10 -4 10 -5 0
-13 -4 -16 -10z"/>
<path d="M7321 4384 c0 -11 3 -14 6 -6 3 7 2 16 -1 19 -3 4 -6 -2 -5 -13z"/>
<path d="M7380 4374 c0 -3 7 -12 15 -20 13 -14 15 -13 15 5 0 12 -6 21 -15 21
-8 0 -15 -3 -15 -6z"/>
<path d="M7463 4372 c-13 -2 -23 -8 -23 -13 0 -6 4 -8 9 -5 5 3 12 -2 15 -11
5 -11 10 -13 17 -6 17 17 6 38 -18 35z"/>
<path d="M7195 4360 c-3 -5 -1 -10 4 -10 6 0 11 5 11 10 0 6 -2 10 -4 10 -3 0
-8 -4 -11 -10z"/>
<path d="M6978 4215 c-3 -14 -1 -25 3 -25 5 0 9 11 9 25 0 14 -2 25 -4 25 -2
0 -6 -11 -8 -25z"/>
<path d="M7040 4215 c0 -7 -8 -19 -17 -24 -17 -10 -16 -10 2 -11 15 0 21 7 23
25 1 14 0 25 -3 25 -3 0 -5 -7 -5 -15z"/>
<path d="M7121 4206 c-17 -20 -9 -29 24 -31 16 0 25 5 25 14 0 8 -3 11 -7 8
-3 -4 -11 0 -18 9 -10 14 -12 14 -24 0z m11 -18 c-7 -7 -12 -8 -12 -2 0 14 12
26 19 19 2 -3 -1 -11 -7 -17z"/>
<path d="M7186 4193 c-6 -14 -5 -15 5 -6 7 7 10 15 7 18 -3 3 -9 -2 -12 -12z"/>
<path d="M7080 4029 c0 -5 5 -7 10 -4 6 3 10 8 10 11 0 2 -4 4 -10 4 -5 0 -10
-5 -10 -11z"/>
<path d="M6966 4014 c-10 -26 -6 -30 9 -10 8 11 15 15 15 9 0 -6 7 -14 16 -17
8 -3 13 -2 9 3 -3 5 -2 11 2 14 5 2 3 2 -4 1 -7 -2 -15 1 -18 6 -9 15 -22 12
-29 -6z"/>
<path d="M7050 4015 c-13 -15 -6 -35 13 -35 8 0 7 4 -2 9 -12 8 -12 12 -2 25
8 9 11 16 8 16 -2 0 -10 -7 -17 -15z"/>
<path d="M7190 4009 c0 -5 5 -7 10 -4 6 3 10 8 10 11 0 2 -4 4 -10 4 -5 0 -10
-5 -10 -11z"/>
<path d="M6930 4000 c0 -5 5 -10 10 -10 6 0 10 5 10 10 0 6 -4 10 -10 10 -5 0
-10 -4 -10 -10z"/>
<path d="M7080 4002 c0 -12 19 -26 26 -19 2 2 -2 10 -11 17 -9 8 -15 8 -15 2z"/>
<path d="M7275 4000 c-4 -6 -11 -7 -17 -4 -7 4 -8 2 -4 -5 6 -9 11 -9 22 0 14
11 18 19 10 19 -3 0 -8 -5 -11 -10z"/>
<path d="M7231 3984 c0 -11 3 -14 6 -6 3 7 2 16 -1 19 -3 4 -6 -2 -5 -13z"/>
<path d="M7296 3985 c-19 -15 -19 -15 2 -15 13 0 22 6 22 15 0 18 0 18 -24 0z"/>
<path d="M7350 3990 c0 -6 -4 -8 -10 -5 -5 3 -10 2 -10 -3 0 -6 6 -12 14 -15
16 -6 30 19 16 28 -6 4 -10 1 -10 -5z"/>
<path d="M7380 3993 c0 -15 19 -37 26 -31 3 4 -1 14 -10 23 -9 9 -16 13 -16 8z"/>
<path d="M7605 2510 c4 -6 11 -8 16 -5 14 9 11 15 -7 15 -8 0 -12 -5 -9 -10z"/>
<path d="M6428 7853 c7 -3 16 -2 19 1 4 3 -2 6 -13 5 -11 0 -14 -3 -6 -6z"/>
<path d="M4923 7770 c0 -25 2 -35 4 -22 2 12 2 32 0 45 -2 12 -4 2 -4 -23z"/>
<path d="M5955 7753 c3 -10 18 -56 31 -103 24 -80 31 -126 54 -330 l9 -85 -4
105 c-2 58 -9 137 -15 175 -12 71 -67 255 -77 255 -3 0 -2 -8 2 -17z"/>
<path d="M3393 7685 c-52 -115 -72 -171 -109 -312 -43 -165 -41 -203 5 -90 19
45 42 100 52 122 23 48 91 313 87 334 -2 8 -17 -16 -35 -54z"/>
<path d="M2521 7664 c0 -11 3 -14 6 -6 3 7 2 16 -1 19 -3 4 -6 -2 -5 -13z"/>
<path d="M4924 7570 c0 -63 1 -89 3 -57 2 31 2 83 0 115 -2 31 -3 5 -3 -58z"/>
<path d="M2500 7643 c0 -13 5 -23 10 -23 13 0 13 11 0 30 -8 12 -10 11 -10 -7z"/>
<path d="M3480 7617 c-23 -17 -55 -76 -75 -138 -10 -30 -33 -84 -50 -121 -18
-37 -41 -98 -50 -135 -19 -72 -32 -96 -46 -87 -10 6 -15 -17 -24 -96 -3 -30
-15 -101 -25 -158 -11 -57 -20 -120 -21 -140 0 -30 -2 -33 -9 -17 -15 36 -11
1 10 -74 18 -64 64 -171 74 -171 2 0 -10 39 -26 87 -35 101 -40 210 -15 308 9
33 21 89 26 124 6 35 17 74 26 88 l16 24 25 -47 c24 -45 64 -102 64 -92 0 3
-16 32 -35 63 -19 32 -37 66 -40 76 -3 10 12 61 35 113 22 52 40 100 40 107 0
6 7 8 18 4 36 -14 117 -25 171 -24 l56 2 -61 8 c-68 8 -132 24 -153 38 -11 7
-11 16 3 57 9 26 16 59 16 72 0 14 3 22 6 19 8 -7 35 25 57 69 18 35 10 59
-13 41z"/>
<path d="M8354 7565 c-8 -21 6 -41 17 -24 12 19 11 39 -1 39 -6 0 -13 -7 -16
-15z"/>
<path d="M8320 7490 c0 -5 6 -10 14 -10 8 0 21 -3 30 -6 11 -4 16 -1 16 10 0
11 -9 16 -30 16 -16 0 -30 -4 -30 -10z"/>
<path d="M8365 7418 c-4 -10 -4 -26 0 -35 8 -17 8 -17 12 0 3 9 3 25 0 35 -4
16 -4 16 -12 0z"/>
<path d="M4922 7385 c0 -16 2 -22 5 -12 2 9 2 23 0 30 -3 6 -5 -1 -5 -18z"/>
<path d="M3648 7303 c12 -2 32 -2 45 0 12 2 2 4 -23 4 -25 0 -35 -2 -22 -4z"/>
<path d="M3120 7212 c-13 -37 -32 -85 -43 -107 -63 -126 -108 -316 -105 -445
1 -47 3 -67 5 -45 16 202 25 261 46 295 l22 35 6 -130 c7 -136 19 -217 46
-298 21 -66 27 -53 9 19 -8 33 -17 83 -21 112 -9 71 5 300 19 315 6 7 35 39
64 73 50 59 65 83 40 67 -7 -4 -16 -8 -20 -8 -3 0 -10 -4 -15 -9 -5 -5 -3 -6
5 -2 6 4 12 4 12 1 0 -10 -71 -95 -79 -95 -10 0 6 138 24 218 9 36 14 66 12
68 -2 2 -14 -27 -27 -64z"/>
<path d="M8325 7260 c-4 -6 7 -10 27 -9 27 0 30 2 13 9 -27 12 -33 12 -40 0z"/>
<path d="M4923 7220 c0 -25 2 -35 4 -22 2 12 2 32 0 45 -2 12 -4 2 -4 -23z"/>
<path d="M3350 7235 c0 -11 43 -91 63 -115 24 -30 21 -23 -21 58 -29 55 -42
73 -42 57z"/>
<path d="M6052 7185 c0 -16 2 -22 5 -12 2 9 2 23 0 30 -3 6 -5 -1 -5 -18z"/>
<path d="M3256 7175 c-9 -14 -13 -25 -8 -25 5 0 14 11 20 25 6 14 10 25 8 25
-2 0 -11 -11 -20 -25z"/>
<path d="M8318 7163 c12 -2 32 -2 45 0 12 2 2 4 -23 4 -25 0 -35 -2 -22 -4z"/>
<path d="M6061 7137 c-1 -10 8 -53 19 -95 10 -43 24 -138 30 -212 15 -192 32
-351 37 -346 12 11 -39 489 -62 576 -13 52 -24 87 -24 77z"/>
<path d="M8310 7091 c34 -5 46 -11 49 -26 3 -17 1 -18 -14 -5 -14 12 -18 12
-26 -1 -15 -23 -11 -133 6 -155 14 -19 15 -18 21 4 5 18 9 20 15 10 5 -7 9 27
9 85 l0 97 -52 -2 -53 -1 45 -6z"/>
<path d="M11 7004 c0 -11 3 -14 6 -6 3 7 2 16 -1 19 -3 4 -6 -2 -5 -13z"/>
<path d="M941 6988 c-30 -17 -95 -49 -145 -69 -100 -42 -103 -53 -3 -15 75 28
153 68 187 95 35 28 24 25 -39 -11z"/>
<path d="M8271 6964 c0 -11 3 -14 6 -6 3 7 2 16 -1 19 -3 4 -6 -2 -5 -13z"/>
<path d="M8273 6870 c0 -41 2 -58 4 -37 2 20 2 54 0 75 -2 20 -4 3 -4 -38z"/>
<path d="M8360 6839 l0 -61 -45 4 c-25 2 -45 0 -45 -4 0 -5 23 -8 50 -8 l50 0
0 65 c0 36 -2 65 -5 65 -3 0 -5 -27 -5 -61z"/>
<path d="M3151 6767 c-6 -35 -10 -106 -9 -158 1 -52 3 -76 4 -54 2 22 9 91 15
153 13 125 7 158 -10 59z"/>
<path d="M458 6813 c6 -2 18 -2 25 0 6 3 1 5 -13 5 -14 0 -19 -2 -12 -5z"/>
<path d="M418 6803 c7 -3 16 -2 19 1 4 3 -2 6 -13 5 -11 0 -14 -3 -6 -6z"/>
<path d="M195 6790 l-50 -7 50 0 c28 0 79 3 115 7 l65 7 -65 0 c-36 0 -87 -3
-115 -7z"/>
<path d="M7656 6713 c10 -40 14 -41 14 -5 0 18 -5 32 -10 32 -6 0 -8 -11 -4
-27z"/>
<path d="M7887 6643 c-82 -225 -92 -263 -79 -283 7 -12 8 -20 2 -20 -5 0 -10
5 -10 11 0 5 -4 7 -10 4 -5 -3 -10 -20 -10 -36 0 -17 4 -28 9 -25 9 6 61 -52
61 -68 -1 -11 -22 14 -40 44 -8 13 -11 12 -24 -5 -8 -11 -12 -22 -10 -25 3 -2
9 2 14 10 9 14 14 7 11 -14 -3 -15 30 -45 44 -40 7 3 16 15 19 27 5 21 7 20
30 -14 18 -27 24 -46 21 -74 -2 -26 0 -34 6 -24 7 11 9 8 9 -10 0 -20 -4 -22
-25 -17 -27 7 -32 -3 -13 -22 9 -9 9 -15 0 -24 -15 -15 -16 -31 0 -22 7 5 9 2
5 -9 -4 -12 1 -17 21 -19 21 -2 27 -8 25 -24 -2 -15 3 -20 20 -20 13 1 22 -5
22 -14 0 -8 3 -17 7 -20 4 -3 -2 -24 -13 -45 -16 -30 -19 -43 -11 -56 9 -13 7
-19 -4 -23 -27 -10 -36 -7 -31 13 5 20 -27 41 -61 41 -14 0 -15 -2 -2 -10 8
-5 11 -12 7 -16 -4 -4 -2 -13 4 -21 16 -18 12 -17 -53 16 -47 24 -63 28 -93
21 -19 -4 -35 -4 -35 0 0 11 -54 29 -77 26 -12 -2 -18 -11 -18 -27 0 -23 4
-24 65 -27 82 -3 168 -37 176 -69 3 -12 12 -27 20 -34 8 -6 11 -16 7 -23 -4
-6 0 -6 9 2 26 21 51 4 44 -31 -8 -40 -13 -44 -39 -28 -16 10 -22 11 -25 2 -2
-7 -17 -26 -33 -43 -23 -26 -29 -29 -35 -15 -3 9 -3 21 1 27 3 5 2 10 -4 10
-5 0 -13 -4 -16 -10 -12 -19 -35 -10 -35 14 0 19 -6 25 -30 28 -46 7 -54 -6
-15 -25 19 -9 35 -21 35 -25 0 -5 -11 -22 -25 -38 -14 -16 -25 -32 -25 -36 0
-5 -12 -8 -27 -8 -40 0 -52 -11 -55 -48 -2 -35 -5 -35 -65 -16 -15 5 -16 4 -3
-6 13 -10 13 -11 0 -7 -8 2 -14 11 -12 21 4 23 -15 20 -21 -4 -3 -11 -1 -20 4
-20 6 0 29 -9 51 -20 40 -19 68 -19 38 0 -13 9 -13 10 0 10 8 0 26 -12 39 -25
35 -37 59 -31 25 6 -14 16 -14 19 5 38 12 12 21 29 21 39 0 14 2 15 10 2 5 -8
7 -23 4 -33 -3 -9 -2 -32 2 -50 l7 -32 13 35 c17 46 16 63 -1 25 -12 -26 -14
-27 -15 -8 -1 46 48 122 70 108 5 -3 11 -1 15 5 3 5 11 10 17 10 6 0 -1 -12
-16 -26 -14 -15 -26 -33 -26 -41 0 -12 2 -12 15 1 8 8 15 20 15 26 0 16 64 7
95 -14 32 -21 38 -20 32 4 -3 11 -1 18 4 14 5 -3 27 31 48 76 39 79 61 176 61
267 0 27 8 43 33 67 17 17 31 35 29 40 -2 5 1 12 6 15 17 12 82 127 82 146 0
12 9 29 21 39 13 11 19 25 16 37 -4 15 -2 17 11 10 11 -6 23 -1 44 19 15 15
35 27 45 26 12 -1 19 7 21 23 2 13 12 39 23 58 12 22 17 43 13 59 l-7 25 -28
-27 c-23 -22 -31 -25 -43 -15 -12 10 -15 9 -18 -6 -3 -16 -5 -16 -23 4 -10 12
-22 20 -27 17 -4 -3 -8 1 -8 10 0 8 -3 21 -6 29 -3 8 2 17 12 21 14 5 15 4 4
-9 -10 -12 -9 -15 6 -15 11 0 27 7 37 14 17 13 17 14 0 20 -15 6 -14 9 7 20
14 7 27 9 30 6 3 -4 21 -1 40 6 19 7 27 13 18 13 -22 1 -23 14 -3 31 24 20 18
34 -25 53 -55 23 -180 56 -180 47 0 -4 11 -11 25 -14 30 -8 33 -31 4 -33 -12
-1 -23 -3 -24 -5 -8 -7 -8 -95 -1 -107 6 -9 -2 -7 -24 4 -20 10 -30 22 -26 31
4 10 -3 14 -24 14 -31 0 -104 33 -94 42 3 3 -6 15 -20 26 -15 11 -26 25 -26
31 0 18 24 12 38 -9 7 -11 20 -20 29 -20 13 0 11 7 -12 30 l-28 29 27 11 c15
5 32 10 39 10 7 0 6 4 -2 13 -11 10 -14 10 -18 0 -3 -7 -9 -13 -15 -13 -6 0
-8 6 -5 14 5 13 -49 46 -76 46 -7 0 -25 -35 -40 -77z m71 -63 c27 -18 29 -30
2 -23 -11 3 -20 10 -20 15 0 6 -6 8 -14 5 -8 -3 -17 0 -19 7 -7 17 22 15 51
-4z m192 -143 c0 -7 12 -20 28 -30 l27 -18 -30 4 c-16 2 -24 2 -17 0 6 -3 12
-8 12 -12 0 -4 -6 -13 -12 -20 -11 -11 -9 -11 11 -1 17 9 25 9 31 1 3 -7 13
-9 22 -6 15 6 38 -31 38 -61 0 -18 -53 -41 -58 -25 -5 16 -22 13 -22 -4 0 -8
-4 -15 -10 -15 -5 0 -10 -16 -10 -35 0 -19 -5 -35 -11 -35 -8 0 -10 -15 -6
-46 3 -29 1 -41 -4 -33 -5 8 -9 26 -9 42 0 38 -12 34 -33 -13 -16 -37 -19 -40
-57 -38 -44 1 -64 18 -74 63 -4 17 -14 38 -23 47 -10 12 -13 26 -9 44 6 21 4
25 -8 21 -10 -4 -22 3 -32 18 -16 24 -15 27 7 59 23 33 24 34 37 14 12 -16 16
-17 23 -7 7 11 11 11 21 -3 7 -9 22 -18 33 -20 22 -3 33 -55 19 -86 -4 -10 -6
-23 -5 -29 1 -7 -5 -13 -12 -13 -12 0 -12 -6 2 -35 18 -39 44 -43 49 -7 2 12
8 19 14 16 5 -3 3 8 -6 24 -20 38 -20 34 4 62 11 13 20 29 20 37 0 23 38 15
43 -9 4 -20 4 -19 6 4 1 18 -6 31 -18 37 -16 9 -18 17 -11 46 4 20 6 44 3 55
-4 14 0 20 11 20 9 0 16 -6 16 -13z m86 -201 c8 -9 10 -17 5 -21 -6 -3 -15 4
-21 15 -12 23 -5 26 16 6z m-103 -175 c-3 -12 -11 -17 -19 -14 -11 4 -12 9 -3
19 16 20 28 17 22 -5z m-108 -91 c-10 -16 -42 -11 -49 6 -4 10 1 25 11 36 17
18 17 18 30 -7 8 -14 11 -30 8 -35z m85 51 c0 -5 -7 -11 -14 -14 -10 -4 -13
-1 -9 9 6 15 23 19 23 5z m-64 -86 c2 -27 -10 -34 -19 -11 -4 10 9 36 18 36 0
0 1 -11 1 -25z m-186 -405 c-24 -15 -36 -11 -14 4 10 8 21 12 24 10 2 -3 -2
-9 -10 -14z m45 -20 c-3 -5 -11 -10 -16 -10 -6 0 -7 5 -4 10 3 6 11 10 16 10
6 0 7 -4 4 -10z m-338 -96 c-3 -3 -12 -4 -19 -1 -8 3 -5 6 6 6 11 1 17 -2 13
-5z"/>
<path d="M7950 6310 c0 -11 2 -20 5 -20 2 0 9 9 15 20 9 16 8 20 -5 20 -8 0
-15 -9 -15 -20z"/>
<path d="M7950 6269 c0 -5 5 -7 10 -4 6 3 10 8 10 11 0 2 -4 4 -10 4 -5 0 -10
-5 -10 -11z"/>
<path d="M4605 6640 c-16 -11 -25 -20 -20 -20 6 0 24 9 40 20 17 11 26 20 20
20 -5 0 -23 -9 -40 -20z"/>
<path d="M8065 6651 c-3 -5 -2 -12 3 -15 5 -3 9 1 9 9 0 17 -3 19 -12 6z"/>
<path d="M7725 6640 c3 -6 -5 -14 -19 -20 -34 -13 -35 -39 -1 -32 18 3 31 -2
45 -19 14 -17 19 -20 20 -9 0 8 3 26 5 40 6 25 6 25 -5 2 -11 -27 -30 -21 -30
9 0 11 5 17 10 14 6 -3 10 -2 10 3 0 6 -7 13 -16 16 -22 8 -26 8 -19 -4z"/>
<path d="M8107 6631 c9 -11 20 -18 25 -15 10 6 -16 34 -31 34 -6 0 -3 -9 6
-19z"/>
<path d="M1170 6629 c0 -5 5 -7 10 -4 6 3 10 8 10 11 0 2 -4 4 -10 4 -5 0 -10
-5 -10 -11z"/>
<path d="M8160 6590 c0 -5 5 -10 10 -10 6 0 10 5 10 10 0 6 -4 10 -10 10 -5 0
-10 -4 -10 -10z"/>
<path d="M3172 6570 c0 -14 2 -19 5 -12 2 6 2 18 0 25 -3 6 -5 1 -5 -13z"/>
<path d="M4943 6535 c0 -22 2 -30 4 -17 2 12 2 30 0 40 -3 9 -5 -1 -4 -23z"/>
<path d="M8065 6540 c-3 -5 1 -10 9 -10 9 0 16 5 16 10 0 6 -4 10 -9 10 -6 0
-13 -4 -16 -10z"/>
<path d="M2911 6495 c-1 -56 27 -126 65 -166 24 -25 59 -129 43 -129 -4 0 -31
26 -60 58 -39 43 -47 49 -33 24 11 -19 35 -48 54 -65 19 -17 34 -36 32 -41 -2
-6 0 -8 3 -4 4 4 28 -3 54 -16 58 -29 150 -56 188 -55 27 1 27 1 -7 11 -19 5
-51 14 -72 19 -32 8 -37 14 -43 49 -4 22 -10 40 -15 40 -4 0 -19 17 -33 38
-14 20 -38 50 -53 66 -29 30 -43 81 -44 159 0 26 -5 47 -10 47 -7 0 -8 -24 -5
-67 7 -75 7 -75 -44 37 l-20 45 0 -50z m193 -294 c9 -25 15 -45 13 -47 -6 -5
-86 39 -82 46 2 4 0 22 -4 41 -26 99 -26 99 18 49 22 -25 47 -65 55 -89z"/>
<path d="M7728 6525 c-3 -5 -8 -30 -12 -55 l-6 -45 15 40 c15 37 17 82 3 60z"/>
<path d="M3151 6500 c0 -8 4 -24 9 -35 5 -13 9 -14 9 -5 0 8 -4 24 -9 35 -5
13 -9 14 -9 5z"/>
<path d="M2411 6484 c0 -11 3 -14 6 -6 3 7 2 16 -1 19 -3 4 -6 -2 -5 -13z"/>
<path d="M1 5808 c-1 -521 2 -678 11 -678 9 0 9 -3 0 -12 -27 -27 -9 -27 31 0
23 16 60 38 82 50 22 11 54 32 70 46 41 36 40 36 125 85 103 60 233 144 242
156 4 5 8 27 8 47 0 20 6 39 13 41 6 3 -2 6 -20 6 -37 1 -182 45 -233 71 -60
31 -74 58 -129 240 -29 96 -86 276 -126 400 l-74 225 0 -677z"/>
<path d="M2424 6450 c2 -8 21 -76 44 -150 22 -74 43 -148 47 -165 4 -16 9 -24
12 -18 5 14 -68 264 -92 315 -8 18 -14 26 -11 18z"/>
<path d="M4952 6425 c0 -16 2 -22 5 -12 2 9 2 23 0 30 -3 6 -5 -1 -5 -18z"/>
<path d="M3170 6428 c0 -4 7 -27 17 -50 18 -48 44 -80 88 -111 25 -17 23 -13
-11 24 -23 24 -53 67 -67 94 -15 28 -26 47 -27 43z"/>
<path d="M6173 6255 c0 -22 2 -30 4 -17 2 12 2 30 0 40 -3 9 -5 -1 -4 -23z"/>
<path d="M4963 6230 c0 -25 2 -35 4 -22 2 12 2 32 0 45 -2 12 -4 2 -4 -23z"/>
<path d="M8365 6230 c12 -19 -6 -71 -23 -68 -9 2 -18 -5 -20 -14 -5 -24 13
-23 38 2 21 21 28 90 9 90 -5 0 -7 -5 -4 -10z"/>
<path d="M6182 6180 c0 -14 2 -19 5 -12 2 6 2 18 0 25 -3 6 -5 1 -5 -13z"/>
<path d="M3151 6164 c0 -11 3 -14 6 -6 3 7 2 16 -1 19 -3 4 -6 -2 -5 -13z"/>
<path d="M7725 6170 c-3 -5 -1 -10 4 -10 6 0 11 5 11 10 0 6 -2 10 -4 10 -3 0
-8 -4 -11 -10z"/>
<path d="M8290 6160 c0 -5 5 -10 10 -10 6 0 10 5 10 10 0 6 -4 10 -10 10 -5 0
-10 -4 -10 -10z"/>
<path d="M7750 6134 c0 -14 4 -23 10 -19 6 3 10 15 10 26 0 10 -4 19 -10 19
-5 0 -10 -12 -10 -26z"/>
<path d="M7816 6145 c-3 -9 -2 -24 3 -33 9 -16 10 -16 16 0 4 9 2 24 -3 33 -8
16 -9 16 -16 0z"/>
<path d="M7716 6135 c-3 -8 -1 -15 4 -15 6 0 10 7 10 15 0 8 -2 15 -4 15 -2 0
-6 -7 -10 -15z"/>
<path d="M6162 6053 c-17 -131 -23 -214 -13 -178 5 17 9 47 10 67 2 55 18 55
27 0 4 -26 9 -40 11 -31 2 9 -2 45 -10 80 -8 35 -12 83 -10 107 3 23 3 42 0
42 -2 0 -9 -39 -15 -87z"/>
<path d="M8224 6097 c-3 -12 -19 -39 -36 -60 -16 -20 -27 -41 -24 -46 3 -5 -1
-11 -9 -15 -8 -3 -15 -11 -15 -18 0 -8 3 -9 8 -3 4 6 20 11 36 13 16 2 35 9
42 17 8 7 19 15 26 18 10 3 8 10 -6 25 -17 20 -18 23 -2 46 20 31 20 32 2 39
-10 4 -17 -2 -22 -16z"/>
<path d="M8365 6110 c3 -5 8 -10 11 -10 2 0 4 5 4 10 0 6 -5 10 -11 10 -5 0
-7 -4 -4 -10z"/>
<path d="M3335 6091 l40 -6 -45 -12 c-25 -7 -56 -15 -70 -17 -14 -3 -2 -4 25
-2 28 2 70 12 95 24 l45 21 -65 -1 c-55 -1 -59 -2 -25 -7z"/>
<path d="M7770 6070 c-8 -5 -12 -12 -9 -15 4 -3 12 1 19 10 14 17 11 19 -10 5z"/>
<path d="M8315 6023 c-34 -28 -72 -53 -85 -57 -51 -14 -105 -42 -131 -66 -23
-21 -27 -36 -32 -100 -4 -41 -3 -94 2 -117 11 -59 -7 -94 -95 -184 -67 -69
-75 -75 -84 -58 -6 10 -20 24 -32 30 l-21 11 20 -28 c12 -16 53 -59 93 -96 40
-38 65 -68 57 -68 -8 0 -18 6 -20 13 -4 9 -8 9 -15 -2 -7 -9 -12 -10 -16 -2
-4 6 -2 11 3 11 21 0 11 19 -21 41 -17 13 -28 16 -23 8 6 -9 0 -8 -20 5 -21
13 -26 15 -17 4 10 -12 9 -18 -3 -28 -8 -7 -22 -9 -31 -6 -14 5 -16 1 -11 -23
l6 -30 -52 18 c-56 20 -60 28 -42 96 7 29 7 29 -8 10 -9 -11 -17 -28 -17 -37
0 -10 -6 -18 -12 -18 -9 0 -8 -4 2 -10 23 -15 0 -12 -47 6 -24 9 -43 21 -43
26 0 6 -7 8 -15 5 -8 -4 -40 3 -71 13 -67 23 -90 25 -52 4 56 -30 776 -279
784 -271 3 2 -7 8 -21 11 -14 4 -23 11 -20 17 7 10 -8 38 -44 78 -11 13 -21
29 -21 35 0 6 4 4 10 -4 5 -8 12 -11 16 -7 4 3 14 -8 24 -25 9 -18 23 -34 31
-36 11 -4 12 -2 2 9 -7 7 -13 17 -13 23 0 5 8 1 19 -10 10 -10 16 -23 13 -28
-3 -5 2 -7 11 -3 14 5 17 0 17 -26 1 -31 1 -31 16 -12 22 30 28 66 15 88 -11
16 -9 23 10 43 14 15 24 40 26 67 3 23 9 44 14 45 5 2 9 31 9 64 0 49 -4 63
-22 77 -16 13 -22 30 -22 60 -1 43 -27 78 -49 64 -6 -4 -8 0 -4 11 4 10 2 26
-3 36 -8 15 -6 21 11 31 17 9 19 13 8 20 -9 5 -10 9 -2 9 6 0 24 18 41 40 16
22 32 37 35 33 4 -3 7 33 7 80 0 73 -2 85 -15 81 -8 -4 -15 -9 -15 -13 0 -10
-90 -64 -97 -58 -3 4 8 14 26 24 17 10 31 21 31 26 0 4 6 7 13 7 28 1 59 36
55 65 l-3 28 -60 -50z m45 -108 c14 -17 10 -23 -59 -97 -40 -44 -47 -46 -54
-18 -3 11 -2 18 3 15 4 -3 14 3 21 12 10 12 10 14 2 9 -7 -4 -13 -3 -13 3 0 5
6 13 13 18 12 8 17 9 40 12 8 1 8 4 -3 11 -12 7 -12 12 4 29 23 25 30 26 46 6z
m-213 -227 c-3 -8 -6 -5 -6 6 -1 11 2 17 5 13 3 -3 4 -12 1 -19z m96 -33 c-3
-9 -8 -14 -10 -11 -3 3 -2 9 2 15 9 16 15 13 8 -4z m-43 -165 c12 -9 11 -10
-7 -5 -14 4 -23 2 -23 -5 0 -6 -5 -8 -12 -4 -7 5 -9 2 -6 -8 6 -14 -29 -45
-39 -35 -8 9 27 68 37 62 6 -3 7 1 3 11 -5 14 -3 15 13 5 10 -5 26 -15 34 -21z
m108 -102 c-3 -7 -13 -15 -24 -17 -16 -3 -17 -1 -5 13 16 19 34 21 29 4z
m-214 -63 c10 -7 15 -18 12 -23 -3 -5 1 -15 9 -22 10 -9 15 -9 15 -1 0 6 -5
11 -12 11 -6 0 -9 2 -6 5 11 11 38 -8 38 -27 0 -11 5 -28 11 -40 11 -21 3 -41
-9 -21 -10 16 -68 21 -65 6 2 -7 -4 -10 -13 -6 -13 5 -13 7 -2 14 11 7 10 11
-2 19 -8 5 -11 10 -6 10 5 0 -1 9 -14 20 -21 18 -22 23 -10 45 15 28 27 31 54
10z"/>
<path d="M8335 5910 c-3 -5 -1 -10 4 -10 6 0 11 5 11 10 0 6 -2 10 -4 10 -3 0
-8 -4 -11 -10z"/>
<path d="M3193 6043 c9 -2 23 -2 30 0 6 3 -1 5 -18 5 -16 0 -22 -2 -12 -5z"/>
<path d="M2428 5972 c32 -29 179 -98 189 -89 2 3 -26 17 -63 31 -37 15 -88 41
-113 57 l-46 30 33 -29z"/>
<path d="M2905 5935 c133 -65 184 -84 107 -40 -51 29 -219 105 -230 104 -4 0
52 -29 123 -64z"/>
<path d="M7795 5948 l-8 -33 -4 28 c-3 15 -8 27 -12 27 -16 0 2 -63 20 -67 10
-3 21 -14 24 -24 8 -25 25 -24 25 1 0 11 -4 20 -10 20 -5 0 -10 9 -10 21 0 15
5 19 15 15 21 -8 19 7 -3 27 -25 23 -28 22 -37 -15z"/>
<path d="M2416 5887 c8 -45 14 -98 15 -117 1 -28 3 -30 6 -10 6 29 -17 199
-27 205 -4 2 -1 -33 6 -78z"/>
<path d="M2557 5929 c7 -7 15 -10 18 -7 3 3 -2 9 -12 12 -14 6 -15 5 -6 -5z"/>
<path d="M2660 5886 c14 -7 36 -16 50 -20 14 -3 7 3 -15 13 -45 22 -73 27 -35
7z"/>
<path d="M7620 5884 c0 -8 5 -12 10 -9 6 3 10 10 10 16 0 5 -4 9 -10 9 -5 0
-10 -7 -10 -16z"/>
<path d="M5001 5874 c0 -11 3 -14 6 -6 3 7 2 16 -1 19 -3 4 -6 -2 -5 -13z"/>
<path d="M6195 5785 c-16 -14 -25 -25 -19 -25 6 0 21 11 34 25 30 32 24 31
-15 0z"/>
<path d="M6100 5720 c-19 -11 -31 -19 -27 -20 11 0 67 29 67 35 0 7 -1 7 -40
-15z"/>
<path d="M2450 5709 c0 -13 5 -31 10 -39 7 -11 8 -5 4 20 -8 43 -14 51 -14 19z"/>
<path d="M5010 5655 c0 -32 2 -56 4 -54 8 7 10 98 3 105 -4 4 -7 -19 -7 -51z"/>
<path d="M6216 5674 c-15 -14 -27 -27 -25 -28 2 -2 28 9 58 25 48 26 51 29 25
29 -16 0 -42 -12 -58 -26z"/>
<path d="M7549 5673 c-6 -16 -11 -38 -11 -50 0 -13 -4 -20 -9 -17 -5 3 -9 0
-9 -7 0 -15 61 -4 72 14 11 17 10 39 -1 33 -5 -4 -7 3 -4 14 4 16 2 19 -11 14
-12 -5 -15 -2 -10 10 3 9 3 16 0 16 -4 0 -11 -12 -17 -27z m21 -44 c0 -5 -4
-9 -10 -9 -5 0 -10 7 -10 16 0 8 5 12 10 9 6 -3 10 -10 10 -16z"/>
<path d="M8348 5693 c7 -3 16 -2 19 1 4 3 -2 6 -13 5 -11 0 -14 -3 -6 -6z"/>
<path d="M823 5630 c-29 -16 -92 -39 -140 -51 -72 -20 -82 -25 -55 -27 18 -2
39 1 45 6 7 5 41 19 77 31 36 11 83 32 105 46 53 32 33 29 -32 -5z"/>
<path d="M6356 5554 c-47 -57 -63 -91 -26 -54 11 11 19 22 18 24 -2 3 6 15 17
28 32 36 48 58 42 58 -3 0 -26 -25 -51 -56z"/>
<path d="M3375 5580 c3 -5 11 -10 16 -10 6 0 7 5 4 10 -3 6 -11 10 -16 10 -6
0 -7 -4 -4 -10z"/>
<path d="M630 5525 c0 -8 2 -15 4 -15 2 0 6 7 10 15 3 8 1 15 -4 15 -6 0 -10
-7 -10 -15z"/>
<path d="M5016 5352 c-4 -79 -5 -146 -3 -149 7 -6 20 235 15 267 -2 14 -7 -40
-12 -118z"/>
<path d="M3550 5477 c0 -3 7 -18 15 -33 8 -16 15 -38 16 -49 0 -11 3 -14 6 -8
6 15 -15 80 -28 88 -5 4 -9 4 -9 2z"/>
<path d="M7467 5445 c-4 -8 -2 -17 3 -20 6 -4 10 3 10 14 0 25 -6 27 -13 6z"/>
<path d="M7671 5404 c0 -11 3 -14 6 -6 3 7 2 16 -1 19 -3 4 -6 -2 -5 -13z"/>
<path d="M2452 5377 c-1 -22 -9 -51 -18 -66 -15 -25 -15 -38 0 -152 13 -110
15 -114 11 -39 -3 47 -8 103 -11 126 -5 30 -2 45 10 57 13 12 16 29 13 64 -3
44 -4 44 -5 10z"/>
<path d="M7681 5364 c0 -11 3 -14 6 -6 3 7 2 16 -1 19 -3 4 -6 -2 -5 -13z"/>
<path d="M3594 5305 c2 -33 11 -76 20 -95 15 -33 16 -34 10 -5 -4 17 -13 59
-20 95 l-13 65 3 -60z"/>
<path d="M6354 5328 l-19 -23 23 19 c21 18 27 26 19 26 -2 0 -12 -10 -23 -22z"/>
<path d="M8240 5172 c0 -5 7 -15 15 -22 8 -7 15 -9 15 -6 0 4 -7 14 -15 22 -8
9 -15 11 -15 6z"/>
<path d="M3632 5145 c0 -16 2 -22 5 -12 2 9 2 23 0 30 -3 6 -5 -1 -5 -18z"/>
<path d="M6355 5159 c-4 -6 -5 -12 -2 -15 2 -3 7 2 10 11 7 17 1 20 -8 4z"/>
<path d="M8180 5090 c0 -5 5 -10 10 -10 6 0 10 5 10 10 0 6 -4 10 -10 10 -5 0
-10 -4 -10 -10z"/>
<path d="M8245 5090 c-3 -5 1 -10 10 -10 9 0 13 5 10 10 -3 6 -8 10 -10 10 -2
0 -7 -4 -10 -10z"/>
<path d="M2451 5004 c-3 -53 108 -521 143 -606 10 -24 14 -91 15 -243 1 -115
4 -301 7 -413 l7 -203 -35 6 c-43 8 -96 -12 -155 -61 -42 -34 -43 -35 -44 -12
0 18 -2 20 -7 6 -12 -30 -35 -5 -28 29 7 28 6 29 -35 32 -23 1 -55 -3 -71 -10
-26 -10 -88 -90 -88 -112 0 -6 -10 -1 -22 10 -32 28 -86 44 -125 37 -32 -6
-33 -6 -33 30 0 20 -4 36 -10 36 -5 0 -10 -16 -10 -36 0 -30 -3 -35 -17 -29
-85 32 -176 -13 -212 -107 l-9 -24 -179 2 c-98 2 -180 4 -183 5 -3 1 -9 0 -15
-1 -17 -3 -229 0 -233 4 -6 6 25 61 54 95 19 24 22 31 10 31 -8 0 -35 -30 -60
-67 l-44 -67 -146 -1 -146 0 -1 115 c-1 63 -5 129 -9 145 -4 17 -5 -6 -2 -51
3 -48 0 -95 -6 -113 -8 -23 -8 -30 0 -25 8 5 9 -3 5 -26 -4 -18 -7 -37 -7 -42
0 -5 -5 -6 -10 -3 -6 4 -8 16 -5 28 5 21 5 21 -6 0 -16 -32 -26 -29 -27 8 0
17 -3 33 -6 36 -3 3 -44 2 -91 -2 -85 -7 -87 -7 -97 -38 -10 -27 -12 -29 -24
-13 -7 10 -18 15 -23 11 -6 -3 -14 1 -17 9 -5 13 -24 16 -104 16 -69 0 -100 4
-103 13 -4 10 -6 10 -6 0 -1 -10 -32 -13 -121 -13 l-120 0 0 -474 0 -475 30
-21 c16 -12 33 -32 36 -46 3 -13 10 -24 16 -24 5 0 8 -6 6 -14 -4 -19 66 -81
122 -107 127 -60 578 -186 785 -219 39 -6 84 -15 100 -20 81 -24 390 -79 412
-74 15 4 28 2 33 -5 4 -7 36 -19 71 -26 35 -8 118 -26 184 -41 199 -45 248
-53 301 -54 28 0 86 -9 129 -20 78 -20 79 -21 189 -128 61 -59 141 -127 179
-151 37 -24 67 -45 67 -48 0 -2 -556 -3 -1235 -3 -679 0 -1235 4 -1235 9 0 5
7 14 15 21 14 12 14 15 -1 31 -10 11 -21 19 -25 19 -4 0 -42 25 -84 55 -43 30
-81 55 -86 55 -6 0 -8 -44 -7 -102 l3 -103 1335 4 1336 4 79 -39 80 -39 -140
-5 c-137 -6 -136 -6 67 -8 l208 -2 -2 -24 c-1 -14 -10 -27 -19 -29 -23 -6 -69
3 -69 14 0 5 -5 9 -11 9 -8 0 -8 -4 0 -14 9 -11 9 -16 0 -22 -7 -4 -15 -2 -17
4 -2 7 -13 12 -23 12 -11 0 -17 -4 -14 -10 9 -15 -58 -12 -80 4 -11 8 -24 12
-30 10 -5 -2 -40 0 -77 4 -59 7 -68 6 -68 -7 0 -9 -3 -12 -8 -6 -9 12 -62 14
-62 2 0 -4 -4 -5 -10 -2 -6 3 -10 -4 -10 -17 1 -20 2 -21 11 -6 13 23 59 20
59 -4 0 -10 -10 -20 -24 -24 -39 -9 -53 -42 -75 -170 -16 -96 -28 -134 -59
-194 -38 -72 -72 -188 -72 -247 0 -16 -7 -53 -15 -83 -8 -30 -38 -156 -65
-280 -28 -124 -53 -233 -56 -242 -5 -17 34 -18 725 -18 578 0 731 3 731 13 0
18 -35 125 -43 133 -4 4 -7 -2 -7 -14 0 -25 -10 -28 -28 -10 -9 9 -12 9 -12 0
0 -7 -4 -12 -9 -12 -9 0 -26 81 -36 175 -6 59 -6 61 22 73 l28 12 -27 -4 c-15
-2 -25 1 -22 5 3 5 22 9 42 9 23 0 32 3 24 8 -7 5 -73 6 -147 4 -138 -5 -152
-1 -117 31 24 22 118 22 197 1 33 -9 91 -24 129 -34 l69 -18 23 25 c13 14 22
29 19 33 -2 3 -9 38 -15 76 -5 38 -12 79 -15 91 -5 19 2 27 43 46 26 13 53 22
60 19 8 -2 12 -28 12 -72 0 -83 6 -100 34 -101 18 -1 18 -2 3 -6 -16 -4 -18
-13 -15 -56 3 -54 -9 -69 -35 -42 -20 20 -29 19 -25 -2 2 -12 -3 -18 -15 -17
-13 2 -16 -3 -12 -20 5 -16 4 -17 -4 -7 -8 12 -12 12 -25 2 -26 -22 -18 -3 16
40 17 21 38 39 47 40 9 1 5 4 -8 8 -13 3 -25 15 -27 25 -5 36 -13 27 -10 -12
3 -36 -1 -45 -31 -73 -22 -20 -49 -33 -74 -36 -21 -3 -39 -10 -39 -15 0 -5 9
-7 19 -3 32 10 81 14 81 7 0 -8 -36 -34 -64 -45 -19 -8 -19 -7 -1 13 24 26 1
27 -27 0 -12 -11 -16 -20 -9 -20 7 0 10 -7 7 -17 -3 -10 -2 -31 3 -48 l9 -30
1 31 c1 39 31 66 99 93 63 25 100 26 149 6 23 -10 68 -15 127 -15 82 0 98 3
155 31 118 58 235 61 337 9 21 -11 43 -20 49 -20 15 0 84 -161 103 -241 l17
-69 288 0 c190 0 287 3 287 10 0 6 -7 13 -16 17 -13 5 -14 19 -9 92 6 75 5 90
-10 104 -14 15 -15 17 -1 17 9 0 16 9 16 20 0 17 -3 19 -17 12 -9 -6 -24 -6
-32 -2 -9 5 -24 11 -33 14 -13 4 -17 13 -14 33 2 15 1 21 -1 13 -10 -29 -25
-41 -38 -30 -25 20 -63 22 -68 3 -2 -10 -5 -4 -5 12 0 17 -4 88 -10 160 l-10
130 26 23 c39 32 97 62 124 62 13 0 60 -8 105 -17 82 -17 83 -17 125 5 35 17
37 20 13 14 -36 -8 -116 -7 -206 3 -72 8 -100 -1 -169 -56 -54 -43 -99 -51
-151 -27 -43 19 -147 27 -170 13 -7 -5 -8 19 -5 72 4 65 3 70 -4 28 -4 -27 -9
-68 -9 -91 -1 -36 3 -43 32 -59 26 -14 38 -15 53 -7 17 9 15 11 -12 10 -37 -1
-54 8 -54 28 0 10 12 14 40 14 38 0 40 -2 50 -41 9 -32 9 -44 0 -49 -7 -4 -62
-10 -123 -13 -62 -3 -133 -12 -159 -21 -42 -13 -47 -13 -52 1 -4 9 2 25 11 37
17 20 17 20 -1 6 -11 -8 -27 -33 -37 -56 -25 -55 -44 -70 -119 -90 -56 -14
-75 -15 -137 -5 -90 16 -105 30 -73 74 l23 32 -26 -24 c-19 -17 -27 -20 -27
-10 0 8 -3 24 -6 36 -6 20 -3 23 24 23 17 0 33 -6 35 -12 4 -10 6 -10 6 -1 2
26 -37 34 -91 19 -79 -22 -164 -30 -173 -17 -11 19 13 38 100 82 98 48 128 76
123 115 -2 15 -10 29 -18 32 -12 4 -13 2 -2 -9 35 -37 3 -73 -120 -135 l-88
-44 0 69 c0 78 -8 71 115 106 44 13 74 24 67 24 -7 1 -43 -7 -80 -18 -46 -13
-74 -16 -85 -9 -13 7 -15 5 -11 -7 4 -9 1 -15 -7 -15 -7 0 -60 -23 -118 -52
-130 -63 -186 -71 -252 -38 -36 19 -41 20 -29 5 32 -39 121 -48 199 -20 24 8
46 13 48 11 7 -7 27 -156 21 -161 -2 -3 -33 10 -69 29 -71 37 -128 52 -234 61
-122 11 -229 26 -247 36 -48 26 6 103 89 125 37 10 42 13 20 13 -34 1 -62 -13
-99 -47 l-28 -26 0 35 c0 20 7 106 16 193 8 86 14 162 11 169 -4 12 -27 -174
-27 -218 0 -13 -4 -26 -9 -29 -9 -6 -169 97 -188 121 -9 11 -7 24 7 56 107
247 200 481 197 490 -3 7 -10 -1 -16 -18 -7 -16 -19 -47 -29 -69 l-17 -38 -24
20 c-23 18 -24 22 -12 50 23 54 233 172 546 307 202 87 310 139 320 155 4 6
-24 -4 -62 -23 -37 -19 -138 -65 -223 -101 -247 -107 -419 -195 -527 -268 -23
-15 -43 -28 -46 -28 -6 0 -6 -1 33 160 50 204 51 213 76 868 7 192 -5 353 -32
419 -8 18 -14 42 -14 54 0 12 -20 66 -45 120 -25 55 -48 119 -51 143 -8 52 1
96 19 96 6 0 12 12 13 28 0 15 4 56 7 92 4 36 9 88 12 115 8 80 13 97 35 112
18 13 19 17 8 31 -8 10 0 7 19 -6 39 -28 58 -54 21 -30 -22 15 -27 15 -32 3
-6 -16 9 -29 23 -20 6 3 35 -8 66 -25 30 -16 62 -30 69 -30 8 0 16 -7 20 -15
4 -12 2 -13 -14 -3 -13 8 -25 9 -42 1 -22 -10 -22 -10 7 -10 65 0 141 -47 131
-80 -3 -11 1 -28 9 -39 13 -17 14 -14 15 38 0 31 4 59 10 63 5 3 7 12 4 20 -4
9 1 18 12 22 10 4 19 2 22 -5 2 -7 12 -12 22 -12 14 0 21 -11 28 -42 l10 -43
1 37 c2 66 18 49 24 -25 6 -80 29 -190 34 -167 3 11 18 16 56 18 64 3 89 10
81 24 -4 7 -2 8 4 4 7 -4 12 -2 12 5 0 7 3 9 6 6 7 -7 -115 -155 -128 -156 -5
-1 -8 7 -9 17 0 10 -3 12 -6 4 -6 -14 25 -122 67 -233 31 -84 139 -469 165
-594 10 -44 21 -87 25 -95 9 -18 18 -61 30 -148 10 -67 31 -145 37 -138 18 18
-129 622 -213 874 l-54 163 23 32 c44 59 85 142 103 205 9 34 21 62 26 62 5 0
7 4 4 9 -4 5 -3 16 0 25 5 14 9 14 22 4 13 -11 14 -10 4 8 -9 18 -8 24 5 35
12 10 15 10 9 2 -4 -8 -2 -13 7 -13 22 0 27 11 16 33 -9 15 -8 18 2 12 9 -6
11 -3 6 8 -8 21 23 98 36 90 6 -4 8 0 4 10 -5 13 -1 17 18 17 14 0 24 5 23 12
-4 18 92 43 114 29 26 -16 35 -13 12 4 -19 14 -19 14 1 15 11 0 90 20 175 44
85 24 204 56 263 72 59 16 104 30 98 32 -9 3 -202 -46 -386 -98 -236 -67 -434
-101 -612 -103 -157 -3 -372 17 -413 37 -19 9 -96 63 -170 119 l-135 102 -38
89 c-33 76 -102 190 -192 314 -13 18 -37 65 -53 105 -37 88 -127 421 -157 582
-7 39 -13 60 -14 49z m298 -864 c47 -67 111 -198 111 -228 0 -10 11 -29 24
-41 23 -22 24 -30 28 -169 l3 -147 42 -77 c22 -43 37 -78 32 -78 -5 0 -9 4 -9
8 0 5 -7 17 -16 28 -14 18 -15 18 -4 -4 6 -12 8 -33 5 -45 -5 -17 -4 -19 4 -7
7 9 11 10 11 3 0 -20 -16 -23 -39 -7 -12 9 -20 23 -19 32 2 9 -3 17 -11 17 -8
0 -16 6 -19 14 -3 8 0 11 6 7 6 -4 8 2 5 15 -3 11 -9 16 -12 11 -3 -6 -7 47
-9 116 -1 69 -6 129 -11 132 -5 3 -12 32 -16 64 -7 51 -6 58 8 53 20 -8 16 15
-7 39 -18 18 -18 17 -12 -4 5 -13 3 -22 -3 -22 -6 0 -11 -11 -11 -24 0 -25
-20 -48 -20 -24 -1 9 -5 7 -14 -4 -11 -15 -13 -2 -14 88 -1 58 -5 110 -8 116
-5 7 -1 9 9 5 21 -8 33 11 18 26 -9 9 -10 7 -5 -8 7 -18 6 -18 -9 -6 -9 7 -14
17 -12 22 8 12 -6 60 -16 54 -10 -7 -31 30 -22 39 3 3 -1 14 -9 23 -18 22 -31
43 -25 43 2 0 23 -27 46 -60z m254 -369 c31 -24 57 -45 57 -46 0 -2 -9 -1 -20
2 -11 3 -20 9 -20 13 0 4 -8 11 -17 14 -16 6 -16 6 0 -12 9 -10 14 -22 10 -25
-3 -4 -1 -7 6 -7 7 0 9 -4 6 -10 -3 -5 -1 -10 6 -10 7 0 9 -11 6 -32 -18 -102
-26 -131 -38 -139 -8 -5 -9 -9 -3 -9 7 0 9 -11 6 -25 -6 -36 -15 -31 -42 23
-30 62 -44 243 -20 269 14 15 13 16 -2 4 -11 -8 -18 -9 -18 -3 0 6 5 14 10 17
8 5 7 12 -2 23 -11 13 -11 14 2 6 9 -5 42 -29 73 -53z m-210 -116 c-3 -32 -2
-55 4 -55 5 0 8 -12 7 -27 -1 -16 -2 -53 -3 -83 -2 -41 -5 -50 -11 -35 -12 28
-13 268 -1 260 5 -3 7 -30 4 -60z m291 57 c3 -5 -1 -9 -9 -9 -8 0 -12 4 -9 9
3 4 7 8 9 8 2 0 6 -4 9 -8z m136 -92 c8 -5 11 -10 5 -10 -5 0 -17 5 -25 10 -8
5 -10 10 -5 10 6 0 17 -5 25 -10z m203 -17 c-7 -2 -19 -2 -25 0 -7 3 -2 5 12
5 14 0 19 -2 13 -5z m75 -10 c-10 -2 -26 -2 -35 0 -10 3 -2 5 17 5 19 0 27 -2
18 -5z m179 -9 c-3 -3 -12 -4 -19 -1 -8 3 -5 6 6 6 11 1 17 -2 13 -5z m196
-29 c-3 -9 -8 -14 -10 -11 -3 3 -2 9 2 15 9 16 15 13 8 -4z m-520 -22 c-7 -2
-19 -2 -25 0 -7 3 -2 5 12 5 14 0 19 -2 13 -5z m-1013 -13 c0 -5 -6 -9 -12 -7
-8 1 -14 -10 -16 -25 -3 -25 -22 -41 -22 -20 0 13 -63 1 -82 -16 -10 -8 -18
-12 -18 -8 0 17 35 65 54 75 27 13 96 14 96 1z m1460 -95 c-14 -17 -30 -20
-30 -4 0 5 5 7 10 4 6 -3 13 1 16 10 4 9 9 14 12 11 3 -3 -1 -12 -8 -21z m-60
-19 c0 -3 -4 -8 -10 -11 -5 -3 -10 -1 -10 4 0 6 5 11 10 11 6 0 10 -2 10 -4z
m-720 -26 c0 -5 -2 -10 -4 -10 -3 0 -8 5 -11 10 -3 6 -1 10 4 10 6 0 11 -4 11
-10z m744 -71 c-17 -56 -71 -167 -103 -208 l-18 -24 -18 52 c-14 43 -15 55 -4
69 33 43 152 172 155 169 2 -2 -3 -28 -12 -58z m-2366 -21 c-19 -28 -38 -35
-38 -14 0 9 10 21 23 26 31 12 31 12 15 -12z m-652 -20 c-3 -16 -1 -28 3 -28
5 0 12 12 15 28 l6 27 103 0 102 0 -38 -78 c-21 -43 -46 -81 -54 -84 -13 -5
-130 -8 -170 -4 -7 1 -2 18 14 47 33 59 23 69 -11 11 -14 -24 -36 -52 -49 -63
-12 -10 -16 -12 -9 -4 7 8 12 41 12 78 0 79 9 97 50 97 29 0 31 -2 26 -27z
m572 13 c4 -11 -3 -12 -33 -7 -24 5 -55 2 -91 -10 -53 -16 -55 -16 -69 2 -8
10 -14 21 -15 24 0 3 46 5 102 5 77 0 102 -3 106 -14z m181 0 c12 -10 24 -28
26 -40 2 -12 7 -26 11 -32 10 -17 14 -99 5 -99 -5 0 -14 -14 -21 -31 -12 -29
-67 -79 -86 -79 -4 0 2 7 14 16 22 15 22 16 4 42 -10 15 -22 35 -25 46 -5 11
-13 16 -23 12 -8 -3 -12 -2 -9 4 9 15 19 12 43 -11 12 -11 27 -17 33 -13 6 4
-6 22 -31 46 -31 30 -44 37 -54 29 -7 -6 -16 -8 -19 -4 -4 3 -14 0 -22 -7 -13
-11 -12 -7 2 18 10 18 22 32 26 32 5 0 5 5 2 10 -9 15 59 80 82 80 11 0 30 -9
42 -19z m211 -17 l0 -36 -34 29 c-44 36 -44 43 -1 43 34 0 35 -2 35 -36z
m-619 -21 c-12 -20 -14 -14 -5 12 4 9 9 14 11 11 3 -2 0 -13 -6 -23z m32 -3
c3 -11 1 -18 -4 -14 -5 3 -9 0 -9 -7 0 -7 -3 -10 -6 -6 -5 5 4 47 11 47 1 0 5
-9 8 -20z m1210 -72 c15 -11 32 -29 39 -41 8 -15 -3 -10 -33 17 -73 65 -75 71
-6 24z m-933 -18 c0 -5 -4 -10 -10 -10 -5 0 -10 5 -10 10 0 6 5 10 10 10 6 0
10 -4 10 -10z m-62 -49 c1 -14 3 -43 5 -63 1 -20 9 -43 17 -50 12 -11 12 -11
1 5 -8 9 -11 20 -8 23 8 8 29 -35 25 -48 -3 -7 -13 -3 -27 11 -17 17 -21 29
-16 54 5 24 4 28 -4 17 -9 -12 -11 -10 -12 10 -1 14 -3 34 -4 46 -1 11 3 21 9
21 6 0 12 -12 14 -26z m-505 -33 c-23 -24 -51 -62 -63 -84 -14 -29 -50 -64
-113 -112 -88 -67 -145 -127 -133 -139 3 -3 12 0 21 7 13 11 22 6 58 -33 33
-36 61 -53 132 -81 99 -39 251 -80 353 -96 44 -7 75 -19 94 -35 32 -27 57 -32
75 -14 8 8 17 8 32 -1 12 -6 25 -8 30 -5 5 3 21 0 35 -6 20 -9 30 -9 48 3 25
16 42 16 283 3 l150 -8 50 -36 50 -36 -225 -3 c-181 -2 -257 2 -390 18 -349
45 -644 125 -767 208 -87 59 -114 97 -120 172 l-6 62 59 55 c45 43 92 72 209
129 82 40 157 74 165 74 8 0 -3 -18 -27 -42z m2091 -47 c0 -22 3 -41 8 -41 14
0 38 -66 38 -103 0 -19 -14 -62 -31 -95 -60 -122 -172 -184 -539 -302 -94 -30
-268 -64 -385 -75 -59 -5 -61 -5 -105 35 l-45 40 55 0 c81 0 243 27 340 56
204 61 239 74 300 110 36 20 79 51 95 69 17 17 60 52 97 79 90 63 94 74 11 26
-91 -53 -266 -114 -388 -136 -182 -32 -443 -18 -470 27 -11 17 0 20 31 9 99
-38 291 -29 497 24 248 64 415 166 454 277 21 58 38 58 37 0z m-494 -161 c-10
-23 -10 -22 -5 9 3 18 6 43 7 55 1 12 3 9 5 -9 2 -17 -1 -42 -7 -55z m-1679
-62 c5 -20 21 -51 36 -68 14 -17 23 -34 19 -37 -3 -3 -38 -1 -76 6 -39 6 -75
9 -80 6 -4 -3 -10 -1 -12 3 -1 5 -16 15 -32 23 -16 8 -27 19 -25 24 2 6 37 38
79 72 74 61 75 61 78 35 2 -15 8 -44 13 -64z m2396 -140 c-3 -8 -6 -5 -6 6 -1
11 2 17 5 13 3 -3 4 -12 1 -19z m-32 -89 c-4 -5 -1 -9 4 -9 6 0 11 -16 11 -35
0 -19 -5 -35 -11 -35 -6 0 -9 -7 -6 -15 4 -8 2 -17 -3 -20 -8 -5 -19 123 -11
131 7 7 21 -7 16 -17z m35 -26 c0 -25 -2 -44 -4 -42 -8 10 -13 89 -5 89 5 0 9
-21 9 -47z m0 -120 c0 -79 -9 -79 -14 0 -3 49 -1 67 11 67 2 0 3 -30 3 -67z
m-28 -29 c-8 -14 -9 -13 -9 10 0 18 3 24 9 18 7 -7 7 -16 0 -28z m-70 -1073
c-2 -9 3 -11 13 -8 19 8 19 8 -6 -39 -12 -23 -18 -30 -15 -16 4 23 4 23 -20 7
-24 -15 -24 -15 -22 20 2 27 7 35 23 35 17 0 18 2 5 11 -12 8 -11 9 5 6 11 -2
19 -9 17 -16z m30 -527 c27 -16 48 -32 48 -36 0 -12 -91 47 -135 87 l-40 37
40 -29 c22 -16 61 -42 87 -59z m409 -284 c59 -9 214 -78 214 -95 0 -20 -67
-16 -164 9 -103 27 -208 34 -242 16 -16 -9 -19 -7 -19 14 0 14 5 37 10 51 10
26 11 26 78 20 37 -4 92 -10 123 -15z"/>
<path d="M2746 4117 c3 -10 9 -15 12 -12 3 3 0 11 -7 18 -10 9 -11 8 -5 -6z"/>
<path d="M2891 3600 c0 -8 4 -22 9 -30 12 -18 12 -2 0 25 -6 13 -9 15 -9 5z"/>
<path d="M2897 3523 c-6 -11 9 -49 22 -58 15 -9 13 6 -4 29 -8 10 -12 23 -9
27 3 5 3 9 0 9 -3 0 -7 -3 -9 -7z"/>
<path d="M1471 3075 c0 -5 3 -15 7 -22 5 -9 12 -6 21 10 13 20 13 21 -1 9 -13
-10 -17 -10 -21 0 -3 7 -6 9 -6 3z"/>
<path d="M3030 1300 c0 -5 5 -10 11 -10 5 0 7 5 4 10 -3 6 -8 10 -11 10 -2 0
-4 -4 -4 -10z"/>
<path d="M6525 4958 c-4 -26 -5 -53 -2 -60 3 -7 6 4 6 24 1 20 6 38 13 40 8 3
8 9 1 23 -10 16 -12 12 -18 -27z"/>
<path d="M3900 4974 c1 -16 29 -60 29 -44 0 8 -6 24 -14 34 -8 11 -15 16 -15
10z"/>
<path d="M3910 4900 c-8 -5 -10 -10 -5 -10 6 0 17 5 25 10 8 5 11 10 5 10 -5
0 -17 -5 -25 -10z"/>
<path d="M6222 4800 c-1 -14 3 -43 7 -65 6 -26 9 -31 9 -15 1 14 -3 43 -7 65
-6 26 -9 31 -9 15z"/>
<path d="M6501 4784 c0 -11 3 -14 6 -6 3 7 2 16 -1 19 -3 4 -6 -2 -5 -13z"/>
<path d="M6242 4660 c0 -19 2 -27 5 -17 2 9 2 25 0 35 -3 9 -5 1 -5 -18z"/>
<path d="M6250 4608 c-1 -7 -7 -49 -15 -93 -16 -87 -13 -114 3 -38 15 67 24
143 18 143 -3 0 -6 -6 -6 -12z"/>
<path d="M5974 4558 l-19 -23 23 19 c12 11 22 21 22 23 0 8 -8 2 -26 -19z"/>
<path d="M5930 4525 c-6 -8 -60 -47 -118 -86 -59 -40 -145 -109 -192 -153 -73
-70 -176 -151 -378 -296 -45 -33 -102 -56 -222 -89 -41 -11 -57 -18 -35 -15
86 11 210 56 260 93 28 21 75 55 105 76 76 53 231 180 315 257 39 35 109 90
156 121 75 50 143 107 127 107 -3 0 -11 -7 -18 -15z"/>
<path d="M6212 4280 c0 -14 2 -19 5 -12 2 6 2 18 0 25 -3 6 -5 1 -5 -13z"/>
<path d="M6221 4234 c0 -11 3 -14 6 -6 3 7 2 16 -1 19 -3 4 -6 -2 -5 -13z"/>
<path d="M8063 4243 c59 -2 155 -2 215 0 59 1 10 3 -108 3 -118 0 -167 -2
-107 -3z"/>
<path d="M6213 4119 c-32 -135 -51 -260 -37 -247 3 3 10 37 15 74 5 38 19 106
30 152 11 46 19 91 17 99 -2 9 -13 -27 -25 -78z"/>
<path d="M128 4182 l-128 -3 0 -113 0 -114 27 -5 c37 -7 436 11 491 22 39 8
47 6 73 -17 17 -13 50 -59 75 -101 49 -84 58 -89 18 -9 -14 28 -46 72 -70 98
l-44 47 2 76 c1 42 -2 81 -8 87 -22 22 -226 37 -436 32z"/>
<path d="M6181 4114 c0 -11 3 -14 6 -6 3 7 2 16 -1 19 -3 4 -6 -2 -5 -13z"/>
<path d="M6166 4013 c-15 -141 -87 -574 -95 -568 -4 2 -7 -4 -8 -13 -1 -28
-33 -214 -43 -257 -5 -22 -9 -49 -9 -60 1 -35 18 33 39 155 11 64 26 138 34
165 8 28 26 121 41 208 14 86 30 169 35 183 6 14 8 30 4 35 -3 5 0 54 7 110 6
55 9 102 6 105 -2 3 -8 -26 -11 -63z"/>
<path d="M458 3924 c6 -3 10 -9 7 -14 -3 -5 3 -7 12 -6 27 4 22 21 -7 23 -14
1 -19 0 -12 -3z"/>
<path d="M252 3901 c-10 -6 -9 -10 7 -14 14 -3 21 0 21 9 0 16 -9 18 -28 5z"/>
<path d="M7994 3894 c4 -12 1 -14 -14 -9 -14 5 -20 2 -20 -9 0 -16 2 -17 185
-18 41 0 48 -2 23 -5 -21 -2 -38 -8 -38 -13 0 -11 67 -2 97 12 15 7 31 7 54
-1 46 -16 99 -14 99 3 0 10 -13 16 -37 19 l-38 4 38 1 c25 1 37 7 37 17 0 13
-28 15 -196 15 -174 0 -195 -2 -190 -16z m253 -8 c-4 -12 -67 -18 -67 -7 0 5
6 12 13 14 20 8 57 3 54 -7z m81 7 c-16 -2 -28 -9 -28 -14 0 -5 -8 -9 -17 -9
-16 1 -16 2 1 15 11 8 31 14 45 14 26 -2 26 -2 -1 -6z m-255 -20 c-7 -2 -21
-2 -30 0 -10 3 -4 5 12 5 17 0 24 -2 18 -5z"/>
<path d="M210 3889 c0 -5 5 -7 10 -4 6 3 10 8 10 11 0 2 -4 4 -10 4 -5 0 -10
-5 -10 -11z"/>
<path d="M4800 3854 c-96 -26 -41 -22 72 6 44 11 61 18 43 18 -16 0 -68 -11
-115 -24z"/>
<path d="M5082 3850 c0 -14 2 -19 5 -12 2 6 2 18 0 25 -3 6 -5 1 -5 -13z"/>
<path d="M4886 3737 c-3 -50 -9 -132 -13 -182 -3 -49 -5 -109 -4 -132 2 -53
72 -292 122 -418 4 -11 10 -27 12 -35 3 -8 6 1 7 20 0 19 11 73 24 120 14 47
34 118 45 159 23 80 28 145 6 76 l-12 -40 -19 80 c-12 50 -18 111 -17 164 0
46 -2 80 -5 74 -4 -5 -14 -13 -22 -16 -13 -5 -13 -6 1 -6 12 -1 15 -12 11 -58
-2 -32 5 -111 17 -176 l20 -119 -24 -86 c-13 -48 -27 -100 -31 -117 -6 -24 -8
-26 -11 -10 -2 11 -12 45 -23 75 -38 110 -80 263 -80 290 0 27 2 28 33 20 61
-15 97 -19 97 -11 0 5 -23 11 -50 15 -83 11 -80 7 -80 113 0 94 0 95 23 89 56
-16 78 -15 33 1 l-50 18 3 80 c1 44 3 80 4 80 1 0 37 -1 81 -3 l78 -4 -6 -29
c-16 -77 -14 -87 4 -25 11 38 18 71 15 74 -3 3 -5 1 -5 -4 0 -10 -152 0 -169
11 -5 2 -11 -37 -15 -88z"/>
<path d="M6192 3810 c0 -14 2 -19 5 -12 2 6 2 18 0 25 -3 6 -5 1 -5 -13z"/>
<path d="M721 3735 c1 -19 18 -51 18 -35 0 8 -4 22 -9 30 -5 8 -9 11 -9 5z"/>
<path d="M233 3685 c0 -22 2 -30 4 -17 2 12 2 30 0 40 -3 9 -5 -1 -4 -23z"/>
<path d="M4277 3683 c-10 -9 -9 -23 2 -23 5 0 11 7 15 15 5 15 -5 20 -17 8z"/>
<path d="M5113 3630 c0 -36 2 -50 4 -32 2 17 2 47 0 65 -2 17 -4 3 -4 -33z"/>
<path d="M7960 3635 l0 -35 210 0 c200 0 210 1 210 19 0 21 17 18 -247 41
-181 15 -173 16 -173 -25z"/>
<path d="M3990 3620 c-9 -6 -10 -10 -3 -10 6 0 15 5 18 10 8 12 4 12 -15 0z"/>
<path d="M3105 3600 c3 -5 8 -10 11 -10 2 0 4 5 4 10 0 6 -5 10 -11 10 -5 0
-7 -4 -4 -10z"/>
<path d="M4240 3570 c0 -12 -7 -20 -17 -20 -13 0 -14 -3 -5 -12 9 -9 16 -6 32
12 24 28 24 26 5 34 -10 4 -15 -1 -15 -14z"/>
<path d="M4110 3555 c0 -8 5 -15 10 -15 6 0 10 7 10 15 0 8 -4 15 -10 15 -5 0
-10 -7 -10 -15z"/>
<path d="M5102 3530 c0 -14 2 -19 5 -12 2 6 2 18 0 25 -3 6 -5 1 -5 -13z"/>
<path d="M4072 3518 c-18 -18 -14 -38 8 -38 21 0 23 4 12 33 -6 14 -10 15 -20
5z"/>
<path d="M3170 3448 c0 -40 -3 -89 -6 -109 l-6 -35 77 -3 78 -2 -7 53 c-9 70
-27 120 -49 136 -9 7 -15 18 -12 23 4 5 -12 9 -34 9 l-41 0 0 -72z"/>
<path d="M3432 3495 c0 -16 2 -22 5 -12 2 9 2 23 0 30 -3 6 -5 -1 -5 -18z"/>
<path d="M4170 3510 c-23 -7 -23 -8 -3 -9 12 -1 25 4 28 9 3 6 5 10 3 9 -2 -1
-14 -5 -28 -9z"/>
<path d="M3880 3499 c0 -5 5 -7 10 -4 6 3 10 8 10 11 0 2 -4 4 -10 4 -5 0 -10
-5 -10 -11z"/>
<path d="M4120 3470 c-12 -8 -12 -10 5 -9 11 0 29 4 40 9 18 8 18 9 -5 9 -14
0 -32 -4 -40 -9z"/>
<path d="M3522 3420 c0 -19 2 -27 5 -17 2 9 2 25 0 35 -3 9 -5 1 -5 -18z"/>
<path d="M4008 3423 c7 -3 16 -2 19 1 4 3 -2 6 -13 5 -11 0 -14 -3 -6 -6z"/>
<path d="M3532 3360 c0 -14 2 -19 5 -12 2 6 2 18 0 25 -3 6 -5 1 -5 -13z"/>
<path d="M4840 3327 c0 -4 -11 -66 -26 -138 -14 -72 -24 -135 -22 -141 2 -5
16 54 32 132 15 78 25 144 22 148 -3 3 -6 2 -6 -1z"/>
<path d="M4499 3293 c-5 -15 -9 -52 -7 -82 1 -31 -1 -62 -5 -68 -9 -15 -1 -15
28 -3 16 6 17 9 5 14 -11 5 -14 19 -12 56 2 28 8 47 13 44 5 -3 9 11 9 30 0
43 -16 47 -31 9z"/>
<path d="M4732 3235 c-13 -7 -20 -15 -15 -18 4 -3 19 3 32 14 26 21 18 24 -17
4z"/>
<path d="M4980 3190 c-22 -7 -21 -8 13 -9 20 -1 37 4 37 9 0 11 -14 11 -50 0z"/>
<path d="M6007 3025 c-4 -22 -6 -67 -6 -100 l2 -60 8 80 c10 89 7 142 -4 80z"/>
<path d="M4782 3010 c0 -14 2 -19 5 -12 2 6 2 18 0 25 -3 6 -5 1 -5 -13z"/>
<path d="M4772 2960 c0 -14 2 -19 5 -12 2 6 2 18 0 25 -3 6 -5 1 -5 -13z"/>
<path d="M5006 2825 c-4 -55 -11 -136 -17 -180 -5 -44 -10 -92 -11 -107 -2
-16 -6 -28 -11 -28 -9 0 6 -20 41 -55 l24 -24 -33 -138 c-17 -76 -31 -151 -30
-168 0 -16 -10 -79 -23 -140 -26 -114 -26 -151 -5 -350 6 -59 7 -34 3 93 -4
147 -1 185 15 255 11 45 22 111 26 147 4 36 20 117 37 180 16 63 33 129 37
145 8 33 13 34 116 21 41 -5 45 -4 20 4 -51 17 -159 25 -151 12 12 -19 -7 -43
-24 -31 -12 8 -12 12 -2 16 10 4 9 8 -3 17 -15 10 -15 31 -4 208 6 108 9 202
6 210 -2 7 -7 -32 -11 -87z"/>
<path d="M5981 2749 c-21 -84 -84 -294 -108 -358 -13 -35 -22 -66 -19 -68 2
-2 7 5 11 16 4 15 16 21 38 22 30 2 31 2 5 6 -16 2 -28 6 -28 7 0 2 12 35 26
72 29 78 97 334 90 341 -3 3 -9 -15 -15 -38z"/>
<path d="M5288 2453 c7 -3 16 -2 19 1 4 3 -2 6 -13 5 -11 0 -14 -3 -6 -6z"/>
<path d="M4975 2442 c-12 -8 -13 -28 -2 -36 4 -3 5 -3 2 0 -2 4 0 15 6 25 11
21 9 23 -6 11z"/>
<path d="M5605 2367 c8 -12 15 -36 15 -53 0 -34 17 -44 75 -43 34 1 26 5 -27
14 -35 5 -38 8 -38 40 0 19 2 35 4 35 9 0 133 -49 160 -64 32 -16 26 -22 -29
-29 -27 -4 -27 -4 7 -6 41 -1 68 7 68 20 0 13 -70 46 -165 79 -82 27 -84 28
-70 7z"/>
<path d="M4962 2350 c0 -19 2 -27 5 -17 2 9 2 25 0 35 -3 9 -5 1 -5 -18z"/>
<path d="M5990 2359 c30 -4 114 -15 185 -24 72 -9 156 -23 189 -31 32 -8 60
-13 63 -11 6 7 -159 45 -267 62 -52 8 -124 14 -160 14 l-65 -2 55 -8z"/>
<path d="M5615 2120 c-4 -83 -5 -153 -2 -156 2 -3 8 63 12 146 4 83 5 154 2
156 -3 3 -8 -63 -12 -146z"/>
<path d="M3928 1939 c8 -33 17 -57 20 -55 6 6 -18 105 -27 110 -4 3 -1 -22 7
-55z"/>
<path d="M5077 1763 c6 -79 11 -89 12 -23 0 30 -3 61 -8 68 -4 7 -6 -13 -4
-45z"/>
<path d="M5535 1680 c-4 -17 -5 -34 -2 -36 2 -3 7 10 11 27 8 42 0 50 -9 9z"/>
<path d="M5075 1585 c-5 -77 -4 -104 11 -147 26 -80 91 -148 139 -147 14 0 15
2 5 6 -61 20 -91 48 -124 118 -16 33 -19 59 -17 153 1 61 0 112 -2 112 -3 0
-8 -43 -12 -95z"/>
<path d="M5506 1573 c-9 -26 -12 -43 -7 -38 11 13 32 77 27 82 -2 2 -11 -17
-20 -44z"/>
<path d="M6691 1594 c0 -11 3 -14 6 -6 3 7 2 16 -1 19 -3 4 -6 -2 -5 -13z"/>
<path d="M6702 1545 c0 -16 2 -22 5 -12 2 9 2 23 0 30 -3 6 -5 -1 -5 -18z"/>
<path d="M6712 1490 c0 -14 2 -19 5 -12 2 6 2 18 0 25 -3 6 -5 1 -5 -13z"/>
<path d="M4988 1440 c15 -33 28 -56 30 -51 3 9 -45 111 -52 111 -3 0 8 -27 22
-60z"/>
<path d="M5221 1465 c0 -11 8 -51 18 -90 16 -60 20 -66 26 -43 4 15 1 36 -6
50 -7 12 -18 41 -25 63 -7 22 -13 31 -13 20z"/>
<path d="M6721 1443 c-1 -25 3 -26 34 -13 19 8 19 9 -2 9 -12 1 -24 7 -26 14
-3 6 -6 2 -6 -10z"/>
<path d="M7352 1386 c-12 -21 -22 -39 -22 -42 0 -2 13 -4 29 -4 16 0 32 -6 35
-12 8 -17 -5 52 -14 76 -6 16 -9 14 -28 -18z"/>
<path d="M5090 1345 c-8 -9 -8 -15 -2 -15 12 0 26 19 19 26 -2 2 -10 -2 -17
-11z"/>
<path d="M423 1343 c235 -2 619 -2 855 0 235 1 42 2 -428 2 -470 0 -663 -1
-427 -2z"/>
<path d="M1883 1343 c97 -2 257 -2 355 0 97 1 17 2 -178 2 -195 0 -275 -1
-177 -2z"/>
<path d="M6740 1334 c0 -8 4 -13 9 -10 5 3 8 -10 6 -30 -4 -41 7 -56 174 -227
l106 -108 -37 -33 c-21 -18 -63 -41 -95 -52 -32 -10 -61 -23 -64 -27 -3 -5
-14 15 -24 45 -26 80 -77 210 -80 206 -2 -2 21 -75 51 -161 32 -95 53 -172 51
-192 -1 -18 -4 -32 -6 -30 -1 2 -21 -9 -43 -25 -52 -38 -125 -54 -213 -45
-183 17 -233 7 -339 -70 -40 -29 -56 -35 -100 -35 -49 0 -75 10 -166 61 -19
10 -45 19 -58 19 -47 0 -62 17 -64 73 -1 47 -2 48 -5 12 -3 -22 -8 -44 -13
-49 -15 -15 27 -49 60 -48 17 0 28 -3 25 -7 -2 -5 6 -6 18 -4 12 2 37 -6 55
-17 29 -18 32 -23 21 -38 -11 -14 -11 -15 1 -4 8 6 20 12 28 12 9 0 4 -8 -11
-20 -26 -21 -27 -44 -2 -54 10 -3 12 0 8 11 -5 12 -1 14 18 8 19 -5 21 -4 9 5
-12 9 -5 10 30 6 37 -4 41 -3 20 5 -14 6 -38 8 -54 5 -24 -5 -26 -4 -17 8 9
11 20 12 49 4 34 -10 84 -7 127 6 21 7 -54 -30 -94 -45 -13 -5 -22 -12 -19
-15 9 -8 140 55 134 65 -4 5 -2 12 4 16 5 3 10 0 10 -7 0 -7 8 1 16 19 28 55
39 47 36 -26 -3 -87 -33 -384 -39 -394 -3 -5 -10 -32 -17 -60 -22 -95 -65 -87
447 -87 l452 0 11 23 c7 12 33 65 59 117 26 52 51 97 56 98 5 2 9 8 9 13 0 6
14 37 30 71 35 70 38 83 10 48 -15 -20 -20 -21 -20 -8 0 9 5 20 10 23 11 7 4
25 -8 25 -7 0 -9 -9 -15 -64 -3 -31 -17 -23 -17 10 0 17 -6 24 -19 24 -11 0
-22 6 -24 13 -3 7 -6 5 -6 -5 -1 -10 -12 -25 -26 -34 -14 -9 -25 -23 -25 -30
0 -9 -10 -14 -27 -13 -16 1 -21 3 -12 6 10 2 19 12 22 23 4 14 1 17 -12 12 -9
-3 -19 -10 -23 -16 -5 -7 -8 -4 -8 6 0 10 9 22 21 28 11 7 18 17 16 24 -3 6 8
30 25 51 42 57 15 57 -37 1 -24 -25 -48 -46 -53 -46 -5 0 -15 -7 -22 -15 -7
-8 -16 -13 -20 -10 -5 3 -11 -3 -13 -12 -4 -17 -5 -17 -6 0 0 9 -6 17 -11 17
-6 0 -8 11 -4 27 10 42 24 51 25 18 1 -21 3 -24 6 -10 3 11 9 24 14 30 5 5 9
19 9 32 0 13 9 31 20 40 11 10 20 22 20 28 0 5 18 21 39 34 21 13 38 31 37 40
-1 10 6 15 17 14 10 0 16 1 13 4 -2 3 0 17 5 31 7 18 6 27 -2 33 -9 5 -2 19
21 49 18 22 30 44 26 47 -4 4 -13 -3 -22 -15 -18 -25 -34 -29 -34 -7 0 8 5 15
10 15 17 0 62 49 55 60 -9 15 -25 12 -25 -5 0 -17 -26 -21 -32 -5 -1 5 -16
-19 -33 -55 -16 -36 -35 -65 -42 -65 -13 0 -28 -54 -18 -70 3 -5 1 -10 -4 -10
-19 0 -18 2 59 335 30 128 53 265 45 273 -10 11 -32 -25 -40 -65 -3 -19 -11
-47 -17 -62 -6 -14 -12 -35 -14 -46 -4 -45 -25 -148 -54 -275 -17 -74 -33
-153 -36 -175 -2 -22 -9 -56 -14 -75 -8 -28 -9 -21 -6 39 4 84 -1 111 -19 111
-15 0 -22 25 -33 122 l-8 66 33 26 c18 15 33 35 33 44 0 9 -28 44 -62 78 -118
114 -182 186 -171 192 7 5 5 12 -5 22 -14 13 -15 12 -9 -3 9 -23 -5 -22 -20 2
-8 12 -8 21 -2 23 14 5 0 66 -17 72 -8 3 -14 -1 -14 -10z m160 -488 c0 -2 -7
-7 -16 -10 -8 -3 -12 -2 -9 4 6 10 25 14 25 6z m-43 -58 c-3 -8 -6 -5 -6 6 -1
11 2 17 5 13 3 -3 4 -12 1 -19z m10 -50 c-3 -8 -6 -5 -6 6 -1 11 2 17 5 13 3
-3 4 -12 1 -19z m-177 -112 c0 -3 -4 -8 -10 -11 -5 -3 -10 -1 -10 4 0 6 5 11
10 11 6 0 10 -2 10 -4z m307 -298 c-3 -8 -6 -5 -6 6 -1 11 2 17 5 13 3 -3 4
-12 1 -19z m-730 -240 c-3 -7 -5 -2 -5 12 0 14 2 19 5 13 2 -7 2 -19 0 -25z"/>
<path d="M5330 1331 c0 -6 4 -13 10 -16 6 -3 7 1 4 9 -7 18 -14 21 -14 7z"/>
<path d="M2903 1323 c9 -2 25 -2 35 0 9 3 1 5 -18 5 -19 0 -27 -2 -17 -5z"/>
<path d="M2500 1249 c0 -5 5 -7 10 -4 6 3 10 8 10 11 0 2 -4 4 -10 4 -5 0 -10
-5 -10 -11z"/>
<path d="M2461 1224 c0 -11 3 -14 6 -6 3 7 2 16 -1 19 -3 4 -6 -2 -5 -13z"/>
<path d="M7153 1195 c0 -22 2 -30 4 -17 2 12 2 30 0 40 -3 9 -5 -1 -4 -23z"/>
<path d="M7421 1204 c0 -11 3 -14 6 -6 3 7 2 16 -1 19 -3 4 -6 -2 -5 -13z"/>
<path d="M6840 1196 c0 -2 8 -10 18 -17 15 -13 16 -12 3 4 -13 16 -21 21 -21
13z"/>
<path d="M5950 1118 c0 -3 10 -28 21 -55 12 -26 39 -93 61 -148 21 -55 36 -86
33 -70 -11 54 -113 297 -115 273z"/>
<path d="M3172 1080 c0 -14 2 -19 5 -12 2 6 2 18 0 25 -3 6 -5 1 -5 -13z"/>
<path d="M0 501 l0 -501 859 0 859 0 6 22 c3 13 9 153 12 311 6 243 5 290 -7
298 -10 6 -10 9 -1 9 13 0 16 38 4 58 -11 17 -38 -13 -48 -53 -4 -16 -10 -32
-13 -35 -3 -3 -15 -30 -25 -60 -10 -30 -30 -78 -43 -107 -13 -29 -27 -69 -30
-90 -3 -21 -13 -51 -23 -68 -10 -16 -21 -43 -24 -60 l-8 -30 -19 25 c-10 14
-19 28 -19 33 0 12 -40 48 -40 36 0 -6 -8 -8 -19 -4 -14 4 -21 0 -26 -15 -7
-21 -35 -28 -35 -9 0 7 -17 10 -45 7 -42 -3 -45 -1 -51 25 -3 17 -1 34 5 40
19 19 13 95 -9 117 -27 27 -36 25 -44 -11 -10 -49 -7 -94 6 -107 7 -7 8 -12 2
-12 -5 0 -15 5 -22 12 -9 9 -12 -2 -12 -53 -1 -54 -27 -192 -29 -150 -1 12 -4
12 -13 3 -18 -18 -30 -14 -23 8 5 17 2 20 -24 20 -22 0 -31 -5 -31 -16 0 -13
-6 -15 -27 -9 -16 3 -29 11 -31 16 -2 5 -10 9 -17 9 -9 0 -15 27 -21 97 -4 54
-9 92 -11 85 -7 -19 -33 5 -33 29 0 11 -11 24 -25 31 -27 12 -35 36 -50 163
-7 53 -9 57 -18 35 -5 -14 -14 -34 -20 -45 -6 -11 -18 -44 -27 -74 -16 -50
-18 -53 -29 -34 -6 12 -14 54 -18 95 -5 55 -9 66 -13 43 l-6 -30 -22 43 c-12
23 -24 42 -26 42 -4 0 2 -106 8 -145 16 -97 18 -133 7 -139 -6 -4 -13 4 -17
19 -7 29 -24 34 -25 8 0 -15 -2 -15 -8 2 -14 36 -23 -34 -11 -94 12 -67 13
-74 0 -66 -6 4 -8 10 -5 14 2 5 -5 25 -15 47 -11 21 -20 44 -20 51 0 19 -18
16 -23 -4 -4 -17 -5 -17 -6 0 -1 13 -10 17 -35 17 -29 0 -36 5 -45 30 -5 17
-12 30 -15 30 -3 0 -3 -7 0 -15 4 -8 1 -15 -6 -15 -10 0 -10 -3 0 -15 9 -11
10 -19 3 -26 -7 -7 -7 -24 -2 -47 11 -47 11 -52 1 -52 -7 0 -23 63 -38 155 -3
22 -10 110 -14 195 -8 144 -40 384 -54 397 -3 4 -6 1 -6 -6 0 -7 -4 -10 -9 -7
-5 3 -12 -6 -15 -20 -5 -17 -12 -24 -21 -20 -8 3 -17 1 -20 -4 -9 -14 -35 0
-36 19 0 13 -2 14 -6 1 -13 -34 -63 -53 -63 -25 0 8 -4 15 -10 15 -5 0 -10 -7
-10 -15 0 -36 -33 -2 -34 35 -1 10 -15 17 -41 22 -22 3 -50 9 -62 13 l-23 7 0
-501z m1414 -276 c-4 -8 -7 -15 -9 -15 -2 0 -5 7 -9 15 -3 9 0 15 9 15 9 0 12
-6 9 -15z m-774 -40 c0 -13 -4 -14 -20 -5 -11 6 -20 13 -20 15 0 3 9 5 20 5
11 0 20 -7 20 -15z m850 -100 c0 -8 -4 -15 -10 -15 -5 0 -7 7 -4 15 4 8 8 15
10 15 2 0 4 -7 4 -15z"/>
<path d="M7085 990 c-3 -5 -1 -10 4 -10 6 0 11 5 11 10 0 6 -2 10 -4 10 -3 0
-8 -4 -11 -10z"/>
<path d="M7080 956 c0 -2 7 -9 15 -16 9 -7 15 -8 15 -2 0 5 -7 12 -15 16 -8 3
-15 4 -15 2z"/>
<path d="M7065 930 c3 -5 8 -10 11 -10 2 0 4 5 4 10 0 6 -5 10 -11 10 -5 0 -7
-4 -4 -10z"/>
<path d="M7490 930 c0 -3 7 -25 15 -50 l15 -45 -6 40 c-3 22 -10 44 -15 50 -5
5 -9 7 -9 5z"/>
<path d="M4470 915 c0 -5 5 -17 10 -25 5 -8 10 -10 10 -5 0 6 -5 17 -10 25 -5
8 -10 11 -10 5z"/>
<path d="M7332 860 c0 -14 2 -19 5 -12 2 6 2 18 0 25 -3 6 -5 1 -5 -13z"/>
<path d="M4494 854 c3 -8 15 -50 27 -92 26 -94 42 -133 33 -82 -7 44 -54 190
-61 190 -3 0 -2 -7 1 -16z"/>
<path d="M5500 865 c0 -5 5 -17 10 -25 5 -8 10 -10 10 -5 0 6 -5 17 -10 25 -5
8 -10 11 -10 5z"/>
<path d="M7290 831 c0 -11 5 -23 10 -26 6 -3 10 3 10 14 0 11 -4 23 -10 26 -5
3 -10 -3 -10 -14z"/>
<path d="M7065 811 c-3 -6 -11 -9 -16 -6 -5 3 -6 -1 -3 -10 6 -15 8 -15 22 -1
9 9 13 18 10 21 -3 4 -9 1 -13 -4z"/>
<path d="M6071 800 c0 -8 4 -24 9 -35 5 -13 9 -14 9 -5 0 8 -4 24 -9 35 -5 13
-9 14 -9 5z"/>
<path d="M5530 733 c8 -3 22 -11 30 -17 13 -10 13 -9 1 7 -7 9 -21 17 -30 16
-13 0 -14 -1 -1 -6z"/>
<path d="M5873 733 c9 -2 25 -2 35 0 9 3 1 5 -18 5 -19 0 -27 -2 -17 -5z"/>
<path d="M7231 726 c-10 -12 -8 -13 8 -9 12 3 21 9 21 14 0 14 -16 11 -29 -5z"/>
<path d="M5700 714 c-81 -22 -111 -44 -145 -105 -32 -56 -56 -68 -110 -55 -20
5 -25 15 -30 61 -7 53 -25 87 -25 46 0 -10 -3 -27 -7 -37 -4 -12 -3 -15 5 -10
8 5 12 -2 12 -22 0 -33 24 -57 62 -61 41 -4 82 23 102 68 10 22 24 39 30 38 6
-1 10 4 9 10 -4 19 49 42 140 63 55 12 71 18 47 18 -19 1 -60 -6 -90 -14z"/>
<path d="M3802 620 c0 -19 2 -27 5 -17 2 9 2 25 0 35 -3 9 -5 1 -5 -18z"/>
<path d="M4066 615 c3 -22 10 -47 15 -55 15 -26 10 32 -6 65 l-15 30 6 -40z"/>
<path d="M7320 635 c0 -8 2 -15 4 -15 2 0 6 7 10 15 3 8 1 15 -4 15 -6 0 -10
-7 -10 -15z"/>
<path d="M3727 618 c-16 -12 -15 -13 7 -13 15 0 22 5 19 13 -3 6 -6 12 -7 12
-1 0 -10 -6 -19 -12z"/>
<path d="M3728 583 c7 -3 16 -2 19 1 4 3 -2 6 -13 5 -11 0 -14 -3 -6 -6z"/>
<path d="M4560 580 c0 -5 5 -10 11 -10 5 0 7 5 4 10 -3 6 -8 10 -11 10 -2 0
-4 -4 -4 -10z"/>
<path d="M5870 576 c-6 -8 -18 -12 -27 -9 -11 4 -14 2 -11 -8 3 -8 13 -13 23
-11 9 2 14 -1 11 -6 -11 -19 18 -31 38 -16 16 11 17 16 6 29 -10 12 -15 13
-21 3 -4 -7 -12 -9 -16 -4 -4 4 1 14 11 22 11 8 15 14 9 14 -6 0 -16 -6 -23
-14z m30 -41 c-7 -9 -15 -13 -17 -11 -7 7 7 26 19 26 6 0 6 -6 -2 -15z"/>
<path d="M5922 581 c-11 -7 -10 -9 3 -14 9 -4 13 -3 10 3 -8 13 1 13 28 -1 21
-10 21 -10 3 5 -23 18 -26 19 -44 7z"/>
<path d="M5595 550 c-3 -5 -1 -10 4 -10 6 0 11 5 11 10 0 6 -2 10 -4 10 -3 0
-8 -4 -11 -10z"/>
<path d="M6277 536 c-4 -10 -5 -21 -2 -24 9 -9 17 6 13 25 -3 17 -4 17 -11 -1z"/>
<path d="M3742 520 c0 -14 2 -19 5 -12 2 6 2 18 0 25 -3 6 -5 1 -5 -13z"/>
<path d="M4459 519 l-24 -20 30 17 c39 24 40 24 28 24 -6 0 -21 -9 -34 -21z"/>
<path d="M7337 533 c-2 -5 -7 -26 -11 -48 -6 -37 -5 -39 9 -21 8 11 15 32 15
48 0 28 -5 35 -13 21z"/>
<path d="M5423 505 c-7 -8 -9 -16 -4 -19 5 -3 12 1 15 10 8 22 4 25 -11 9z"/>
<path d="M5905 510 c-3 -5 -1 -10 4 -10 6 0 11 5 11 10 0 6 -2 10 -4 10 -3 0
-8 -4 -11 -10z"/>
<path d="M7200 509 c0 -5 5 -7 10 -4 6 3 10 8 10 11 0 2 -4 4 -10 4 -5 0 -10
-5 -10 -11z"/>
<path d="M3801 497 c-8 -10 -7 -14 4 -14 8 0 15 6 15 14 0 7 -2 13 -4 13 -2 0
-9 -6 -15 -13z"/>
<path d="M5478 503 c6 -2 18 -2 25 0 6 3 1 5 -13 5 -14 0 -19 -2 -12 -5z"/>
<path d="M5353 486 c5 -14 3 -17 -8 -13 -8 4 -17 2 -20 -2 -2 -5 7 -12 21 -15
28 -7 91 2 99 14 3 4 -12 4 -33 -1 -50 -11 -52 -11 -46 5 3 8 0 17 -7 22 -9 5
-10 2 -6 -10z"/>
<path d="M6195 489 c4 -5 -2 -9 -12 -9 -21 0 -135 -39 -115 -40 7 0 49 9 93
21 45 11 90 18 101 15 12 -2 17 -1 12 3 -13 12 -86 22 -79 10z"/>
<path d="M7180 390 c0 -5 5 -10 10 -10 6 0 10 5 10 10 0 6 -4 10 -10 10 -5 0
-10 -4 -10 -10z"/>
<path d="M3568 363 c6 -2 18 -2 25 0 6 3 1 5 -13 5 -14 0 -19 -2 -12 -5z"/>
<path d="M3618 363 c7 -3 16 -2 19 1 4 3 -2 6 -13 5 -11 0 -14 -3 -6 -6z"/>
<path d="M3563 343 c9 -2 23 -2 30 0 6 3 -1 5 -18 5 -16 0 -22 -2 -12 -5z"/>
<path d="M3618 343 c6 -2 18 -2 25 0 6 3 1 5 -13 5 -14 0 -19 -2 -12 -5z"/>
<path d="M5145 317 c-16 -13 -16 -14 -1 -20 10 -4 19 -1 23 9 8 21 -1 26 -22
11z"/>
<path d="M8100 285 c-8 -9 -8 -15 -2 -15 12 0 26 19 19 26 -2 2 -10 -2 -17
-11z"/>
<path d="M7418 239 c19 -20 14 -47 -10 -60 -14 -8 -18 -14 -11 -16 21 -7 45
25 41 54 -2 14 -10 28 -18 31 -12 4 -13 2 -2 -9z"/>
<path d="M8010 204 c0 -6 -7 -14 -15 -18 -8 -3 -15 -15 -15 -26 0 -12 5 -18
10 -15 6 4 8 10 5 14 -2 5 7 6 20 3 20 -3 24 -1 19 11 -3 10 2 18 15 22 31 9
26 22 -9 22 -17 0 -30 -6 -30 -13z"/>
<path d="M7322 130 c-12 -16 -22 -34 -22 -40 0 -5 -4 -10 -10 -10 -5 0 -10 -6
-10 -13 0 -7 -9 -20 -20 -30 -37 -31 -23 -37 85 -37 81 0 105 3 105 13 0 8 -3
17 -7 21 -4 4 -6 23 -4 42 1 22 -2 34 -10 34 -7 0 -20 6 -28 14 -9 8 -23 16
-31 18 -8 2 -18 6 -21 11 -3 4 -15 -6 -27 -23z"/>
<path d="M1810 68 c0 -15 -4 -30 -10 -33 -20 -12 -10 -35 15 -35 29 0 29 2 10
55 -12 35 -14 37 -15 13z"/>
<path d="M7702 65 c0 -11 4 -31 8 -45 6 -20 8 -21 8 -5 0 11 -4 31 -8 45 -6
20 -8 21 -8 5z"/>
<path d="M7993 73 c-7 -3 -12 -14 -12 -26 1 -17 2 -18 6 -4 2 9 8 15 13 12 5
-3 11 -1 14 4 8 12 -5 20 -21 14z"/>
<path d="M4113 3 c9 -2 25 -2 35 0 9 3 1 5 -18 5 -19 0 -27 -2 -17 -5z"/>
<path d="M8018 3 c6 -2 18 -2 25 0 6 3 1 5 -13 5 -14 0 -19 -2 -12 -5z"/>
</g>
</svg>
